<?xml version="1.0" encoding="UTF-8" ?>
<!DOCTYPE svg PUBLIC "-//W3C//DTD SVG 1.1//EN" "http://www.w3.org/Graphics/SVG/1.1/DTD/svg11.dtd">
<svg width="647pt" height="647pt" viewBox="0 0 647 647" version="1.1" xmlns="http://www.w3.org/2000/svg">
<g id="#1c1a1aff">
<path fill="#1c1a1a" opacity="1.00" d=" M 304.84 21.99 C 307.26 15.95 313.47 11.52 320.06 11.79 C 329.69 11.49 337.77 21.77 335.33 31.07 C 334.08 37.06 329.29 41.78 323.76 43.90 C 326.64 52.83 334.34 59.51 342.67 63.34 C 344.62 64.09 345.39 65.83 344.80 67.80 C 340.80 69.24 336.15 71.41 335.26 76.05 C 334.01 83.19 341.68 89.59 348.50 87.68 C 353.11 86.42 357.62 82.24 357.23 77.13 C 355.27 76.84 352.12 76.71 352.01 74.07 C 351.27 70.47 354.27 67.87 356.65 65.73 C 360.50 62.19 364.41 57.58 364.18 52.04 C 364.28 48.73 360.36 45.81 357.33 47.37 C 355.75 49.15 355.63 52.04 353.45 53.30 C 350.65 55.38 347.18 51.99 347.04 49.09 C 345.26 41.51 354.36 34.89 361.18 37.89 C 366.79 39.99 370.11 45.58 371.97 50.99 C 374.38 57.72 374.33 64.99 373.96 72.04 C 373.93 73.32 373.54 74.55 373.01 75.70 C 371.68 76.18 370.40 76.75 369.12 77.33 C 370.05 82.49 374.24 87.21 379.33 88.60 C 382.49 89.63 385.88 88.10 388.10 85.85 C 388.07 82.42 386.82 78.35 389.27 75.40 C 392.81 70.31 400.59 70.00 405.23 73.73 C 409.91 77.20 411.01 84.70 407.29 89.26 C 404.41 93.32 398.37 95.10 393.94 92.60 C 394.59 93.67 394.96 94.82 395.06 96.05 C 389.19 108.40 383.19 120.99 380.63 134.51 C 341.09 134.45 301.54 134.57 262.00 134.51 C 260.85 134.47 258.97 134.82 259.09 133.01 C 256.42 121.94 251.86 111.44 246.79 101.28 C 245.36 98.75 244.30 95.65 246.14 93.03 C 242.26 93.93 237.74 94.02 234.49 91.35 C 229.37 87.70 228.81 79.49 233.04 74.96 C 237.30 70.62 245.37 69.51 249.63 74.46 C 252.77 77.31 252.80 82.16 250.93 85.72 C 253.30 87.37 256.04 89.08 259.08 88.61 C 264.01 88.06 267.91 84.24 270.07 79.97 C 270.49 78.96 271.39 77.76 270.50 76.72 C 269.44 76.34 268.35 76.04 267.25 75.80 C 265.39 68.04 266.32 59.81 268.37 52.18 C 270.28 46.31 273.66 40.00 279.82 37.81 C 287.00 34.99 295.73 42.48 293.74 50.05 C 293.18 52.76 289.96 54.50 287.40 53.45 C 285.28 51.67 285.03 47.88 281.88 47.37 C 277.85 46.94 275.82 51.63 276.83 55.00 C 277.68 60.57 282.16 64.32 286.04 67.93 C 288.37 69.88 288.54 73.16 287.98 75.93 C 286.26 76.33 284.53 76.74 282.79 77.07 C 282.22 84.76 292.09 90.45 298.62 86.59 C 301.58 84.80 304.59 81.82 304.06 78.05 C 304.38 74.85 302.69 71.60 299.64 70.40 C 297.93 69.23 294.39 68.79 295.00 66.01 C 297.20 62.73 301.45 61.95 304.44 59.58 C 309.99 55.42 314.49 49.72 317.13 43.29 C 307.49 42.31 301.27 30.79 304.84 21.99 M 317.17 21.13 C 311.96 22.66 311.26 30.44 315.57 33.33 C 319.99 37.43 327.68 32.78 327.01 27.06 C 327.00 22.24 321.37 19.49 317.17 21.13 M 235.43 80.69 C 234.75 82.01 234.66 86.08 236.68 85.74 C 236.76 84.23 237.10 81.17 235.43 80.69 M 404.31 80.78 C 403.91 83.11 403.18 85.37 402.38 87.60 C 404.76 86.68 406.76 82.52 404.31 80.78 Z" />
<path fill="#1c1a1a" opacity="1.00" d=" M 316.48 29.54 C 315.24 27.54 316.30 25.36 317.88 23.97 C 320.20 23.33 322.78 23.64 324.11 25.88 C 324.11 27.65 323.80 29.39 322.78 30.87 C 320.69 32.04 317.61 32.01 316.48 29.54 Z" />
<path fill="#1c1a1a" opacity="1.00" d=" M 260.42 137.01 C 300.28 137.37 340.14 136.96 380.00 137.14 C 377.45 149.21 376.68 161.63 377.08 173.95 C 339.13 173.74 301.17 174.12 263.22 173.65 C 263.69 161.36 262.52 149.11 260.42 137.01 Z" />
<path fill="#1c1a1a" opacity="1.00" d=" M 245.94 176.39 C 248.26 176.86 250.62 176.87 252.97 176.72 C 264.62 176.13 276.29 176.87 287.95 176.68 C 320.99 176.54 354.04 176.75 387.07 176.84 C 400.83 192.67 409.74 212.41 413.86 232.90 C 417.41 249.72 416.81 267.02 419.07 284.00 C 421.15 300.33 424.96 316.95 434.13 330.87 C 441.62 342.16 452.79 350.30 461.01 360.98 C 467.80 369.37 468.96 380.48 469.21 390.87 C 469.77 391.04 470.89 391.38 471.45 391.55 C 473.29 379.75 476.18 368.02 476.39 356.04 C 478.04 357.95 478.28 360.53 478.74 362.92 C 479.61 369.09 479.67 375.34 479.95 381.56 C 484.52 380.75 490.73 382.39 493.34 377.38 C 499.99 366.10 501.17 352.60 502.82 339.86 C 502.99 333.96 503.69 328.06 503.60 322.16 L 502.96 321.34 C 491.98 316.90 480.18 313.49 470.89 305.82 C 461.26 297.61 456.58 283.28 461.50 271.31 C 465.59 261.47 474.51 255.09 481.70 247.67 C 486.91 242.50 493.41 236.98 493.41 228.97 C 494.25 223.31 490.82 217.19 485.14 215.75 C 481.22 214.61 477.22 216.32 473.82 218.18 C 474.97 210.53 485.01 207.87 490.95 211.82 C 497.54 215.59 500.86 223.74 499.50 231.11 C 498.70 238.28 494.44 244.49 489.32 249.34 C 481.70 256.81 473.74 264.51 469.55 274.53 C 465.33 284.35 470.03 296.67 479.30 301.76 C 487.10 306.07 495.71 308.65 503.86 312.22 C 503.41 306.63 504.12 300.98 503.31 295.42 C 501.09 295.34 498.48 296.03 496.54 294.66 C 495.93 293.23 496.14 291.61 495.95 290.10 C 492.29 289.57 488.60 289.75 484.92 289.79 C 483.64 290.03 482.88 288.97 482.08 288.21 C 485.32 286.12 489.42 287.16 493.06 287.01 C 491.05 282.22 490.39 276.57 492.78 271.79 C 496.00 266.17 502.49 262.32 509.04 262.97 C 515.36 263.49 520.84 267.91 523.26 273.69 C 531.37 271.40 540.93 272.83 547.23 278.73 C 553.16 284.04 554.66 294.25 549.31 300.46 C 545.56 305.46 538.43 306.24 532.77 304.67 C 535.78 303.43 539.19 302.88 541.57 300.45 C 546.87 295.91 546.23 287.13 541.43 282.45 C 537.22 277.31 530.31 276.06 524.03 275.95 C 524.40 281.28 521.85 286.23 519.65 290.93 C 521.70 290.23 523.82 290.15 525.80 291.14 C 526.03 291.55 526.48 292.38 526.71 292.79 C 522.20 293.47 517.77 294.60 513.27 295.34 C 513.19 302.50 512.96 309.77 513.95 316.88 C 517.92 318.08 521.69 319.84 525.20 322.06 C 523.04 318.18 520.92 314.21 519.96 309.83 C 523.21 312.33 525.13 316.07 527.83 319.10 C 537.81 330.56 541.91 346.08 542.04 361.03 C 542.36 373.32 539.67 385.61 534.76 396.86 C 531.95 403.40 527.07 408.96 521.08 412.79 C 514.53 416.70 506.97 420.49 504.02 428.05 C 510.78 427.23 517.37 425.14 523.66 422.54 C 525.81 421.68 527.76 420.27 530.10 419.91 C 524.51 425.26 517.23 428.36 510.02 430.86 C 502.67 433.57 494.72 434.05 486.96 433.96 C 483.30 433.96 479.59 433.28 475.98 434.10 C 471.72 437.13 468.18 441.23 465.83 445.91 C 467.79 447.59 470.25 449.57 473.01 448.74 C 478.30 447.55 481.69 442.75 483.66 438.03 C 484.29 444.45 479.42 451.17 472.96 452.28 C 469.62 453.13 466.19 452.14 463.09 450.90 C 461.39 458.49 460.98 466.48 457.53 473.60 C 454.15 481.59 447.33 487.25 441.60 493.50 C 438.47 496.37 436.13 500.47 432.17 502.19 C 435.28 495.29 440.40 489.51 443.11 482.38 C 437.64 480.30 435.62 474.11 435.03 468.79 C 426.86 476.24 418.43 483.55 408.90 489.23 C 409.49 487.52 411.02 486.47 412.23 485.24 C 418.49 479.45 423.89 472.80 428.69 465.77 C 434.10 457.95 440.49 450.89 446.98 443.97 C 456.03 434.38 462.67 422.68 466.74 410.17 C 468.51 404.84 469.49 399.28 471.17 393.93 C 470.16 393.63 469.15 393.35 468.14 393.09 C 465.71 411.99 456.65 429.80 443.28 443.31 C 439.08 447.79 435.05 452.42 430.59 456.65 C 419.63 468.14 410.11 481.61 396.27 489.89 C 404.76 481.80 412.27 472.74 419.45 463.49 C 430.50 447.50 441.34 430.81 446.76 411.96 C 450.27 400.02 450.12 387.07 447.08 375.05 C 446.25 372.64 445.98 369.75 443.96 367.99 C 445.68 373.82 446.46 379.91 445.94 385.98 C 445.55 406.79 438.42 427.02 427.52 444.60 C 418.16 460.64 405.82 474.65 393.12 488.10 C 392.47 489.08 390.70 489.58 391.01 491.01 C 391.53 491.17 392.57 491.50 393.09 491.66 C 394.52 495.21 394.25 499.12 394.69 502.86 C 382.85 503.50 370.96 503.12 359.09 503.26 C 321.62 503.39 284.14 503.42 246.67 503.27 C 246.57 498.68 246.65 494.09 246.73 489.51 C 243.13 488.94 239.08 489.16 236.04 486.85 C 223.58 476.50 213.30 463.63 205.67 449.36 C 194.56 430.02 187.38 408.32 185.50 386.06 C 185.16 382.07 185.16 378.03 185.67 374.06 C 186.14 369.58 189.80 366.46 191.46 362.45 C 194.07 356.43 198.24 350.87 198.62 344.12 C 200.26 333.84 194.21 323.05 199.31 313.24 C 202.95 304.21 216.24 300.09 223.25 307.61 C 218.44 306.24 212.87 305.71 208.52 308.70 C 203.60 311.62 200.74 317.35 200.96 323.02 C 201.09 328.07 202.55 332.99 202.74 338.04 C 202.90 339.11 202.67 340.39 203.45 341.29 C 207.54 332.35 212.47 323.49 220.29 317.28 C 225.84 312.88 232.67 309.28 239.94 309.76 C 249.29 310.17 256.55 320.75 253.43 329.58 C 250.40 339.75 235.47 343.41 228.02 335.94 C 225.49 333.50 225.57 329.69 225.67 326.44 C 223.28 328.64 224.49 332.26 225.11 335.00 C 227.37 342.01 233.82 346.53 240.06 349.81 C 246.54 353.19 253.81 354.39 260.97 355.41 C 259.62 355.86 258.20 356.20 257.02 357.03 C 243.74 365.79 235.00 381.09 234.43 397.01 C 234.04 406.65 235.82 416.92 241.08 425.08 C 240.17 420.91 238.08 417.08 237.47 412.82 C 233.27 390.15 245.35 365.58 265.98 355.20 C 270.70 360.89 276.16 365.94 281.41 371.15 C 265.10 381.66 250.68 396.88 245.48 416.00 C 245.87 417.31 246.73 418.41 247.56 419.49 C 252.89 425.91 259.42 431.65 267.33 434.59 C 268.68 435.05 270.09 434.53 271.44 434.33 C 279.35 432.58 287.13 430.03 294.36 426.35 C 296.53 425.18 298.60 423.77 300.99 423.09 C 293.44 428.98 285.75 434.86 277.02 438.92 C 266.16 444.51 254.03 447.53 243.55 453.78 C 242.91 462.10 243.21 471.45 248.75 478.22 C 252.37 482.83 257.94 485.06 263.24 487.10 C 263.32 479.63 264.45 472.10 267.14 465.11 C 269.46 459.00 273.57 453.75 278.15 449.15 C 290.94 436.28 305.13 424.89 318.02 412.12 C 318.85 411.26 319.76 410.48 320.72 409.77 C 335.05 424.30 349.28 438.96 364.14 452.95 C 356.21 464.32 347.57 475.19 338.31 485.51 C 337.34 486.63 336.17 487.67 335.81 489.17 C 337.47 489.05 338.58 487.75 339.68 486.68 C 353.80 472.26 367.03 456.77 377.35 439.37 C 395.75 409.92 405.41 375.57 407.94 341.10 C 408.98 321.36 408.50 301.51 405.56 281.95 C 404.38 285.83 405.67 289.97 405.83 293.94 C 407.36 337.18 401.70 381.62 382.84 420.96 C 378.12 430.80 372.44 440.12 366.64 449.34 C 364.02 447.67 362.11 445.16 359.88 443.05 C 349.85 433.14 339.73 423.32 329.46 413.66 C 327.48 411.73 325.14 410.12 323.55 407.82 C 335.47 396.73 347.05 385.17 356.77 372.06 C 379.78 341.58 392.06 303.82 394.68 265.93 C 395.33 258.95 394.81 251.93 394.50 244.95 C 393.11 279.00 385.04 313.05 369.43 343.46 C 357.34 367.23 339.63 387.57 320.38 405.82 C 316.45 403.04 313.75 398.93 310.09 395.84 C 299.10 384.84 287.92 374.03 277.11 362.85 C 274.29 359.89 270.84 357.51 268.51 354.11 C 283.09 345.36 296.47 333.72 304.73 318.65 C 310.96 307.16 312.74 293.86 312.73 280.95 C 312.52 279.07 313.60 276.85 312.05 275.33 C 306.37 276.49 300.50 276.99 295.08 279.17 C 288.64 281.48 282.98 285.40 277.44 289.32 C 275.60 290.64 273.44 291.99 271.08 291.32 C 265.44 290.40 259.70 291.66 254.07 290.91 C 250.53 289.28 250.34 284.63 250.13 281.27 C 251.96 279.41 254.71 279.10 256.97 278.00 C 262.73 275.60 267.04 270.89 270.97 266.21 C 271.56 266.36 272.75 266.66 273.34 266.81 C 272.29 264.97 270.13 264.45 268.40 263.50 C 262.51 260.53 256.06 258.79 249.48 258.48 C 249.90 253.20 245.16 249.83 240.37 249.45 C 241.62 251.64 245.33 252.07 245.24 255.06 C 245.70 259.44 240.93 265.94 236.30 262.49 C 232.95 258.48 232.02 253.03 230.07 248.28 C 236.40 244.31 243.14 240.78 248.47 235.42 C 257.38 226.89 262.83 215.02 263.77 202.74 C 287.26 205.46 313.41 202.19 331.85 186.14 C 322.55 190.70 313.31 195.70 303.07 197.86 C 290.53 200.38 277.48 201.14 264.84 198.90 C 265.75 195.30 266.23 191.62 266.82 187.95 C 275.31 188.30 283.91 187.27 291.99 184.58 C 293.43 183.91 295.41 183.61 296.05 181.94 C 288.38 184.82 280.18 186.32 271.98 186.11 C 265.14 186.44 258.10 185.42 251.98 182.20 C 249.52 180.84 247.04 179.08 245.94 176.39 M 338.06 186.54 C 341.26 187.70 344.76 187.73 347.91 189.05 C 358.74 192.78 366.68 202.84 368.98 213.91 C 371.58 225.08 368.82 237.08 362.78 246.69 C 351.69 262.75 332.71 271.43 314.02 274.82 C 313.96 275.20 313.82 275.97 313.76 276.35 C 331.78 275.81 350.39 268.93 361.96 254.61 C 363.48 275.63 358.57 297.31 346.90 314.97 C 345.12 317.81 342.65 320.17 341.11 323.15 C 344.64 320.41 347.21 316.66 349.83 313.09 C 362.81 295.05 367.19 272.00 365.55 250.14 C 365.64 248.14 367.14 246.62 368.04 244.93 C 373.03 235.91 374.96 225.16 373.08 214.99 C 371.48 205.97 366.55 197.35 358.83 192.22 C 352.83 187.82 345.31 186.64 338.06 186.54 M 288.26 220.53 C 288.24 220.78 288.20 221.29 288.18 221.55 C 293.49 223.03 298.43 226.08 304.08 226.18 C 307.41 226.28 310.43 224.66 313.56 223.77 L 314.07 222.42 C 307.76 224.42 300.49 224.55 294.85 220.65 C 296.55 217.99 298.81 215.15 302.10 214.57 C 304.68 214.37 307.19 215.13 309.71 215.55 C 310.40 215.05 311.09 214.54 311.78 214.03 C 307.18 214.21 303.20 211.62 299.11 210.01 C 294.92 212.89 292.10 217.24 288.26 220.53 M 318.37 214.59 C 315.88 214.95 313.07 214.04 311.07 216.00 C 315.37 216.06 320.23 216.06 323.83 213.35 C 322.03 213.85 320.21 214.31 318.37 214.59 M 314.70 222.20 C 313.33 225.69 309.97 227.84 307.52 230.53 C 303.31 235.44 295.32 232.18 291.32 237.36 C 286.66 243.51 283.55 251.19 283.72 258.98 C 285.79 251.84 288.54 244.15 294.90 239.67 C 298.92 236.81 305.09 238.52 308.15 234.18 C 313.09 228.60 317.76 222.14 324.93 219.34 C 321.35 219.58 318.09 221.21 314.70 222.20 M 236.08 318.45 C 238.46 319.99 241.57 320.39 243.23 322.94 C 246.24 326.69 243.68 332.13 239.96 334.29 C 237.21 335.65 233.92 335.44 231.13 334.32 C 234.55 336.75 238.89 337.47 242.81 335.86 C 247.34 333.51 250.98 327.23 247.56 322.56 C 245.13 318.71 240.20 318.28 236.08 318.45 M 225.26 323.19 C 214.54 334.84 207.56 349.64 203.94 364.98 C 200.03 382.12 199.35 400.21 203.50 417.37 C 206.72 431.88 212.81 445.77 221.40 457.91 C 222.71 459.65 223.69 461.76 225.63 462.90 C 208.09 437.18 200.93 404.59 206.08 373.88 C 208.37 360.67 213.62 347.84 222.23 337.46 C 221.58 332.92 221.56 327.58 225.38 324.34 C 227.43 321.31 231.12 320.73 234.12 319.11 C 230.85 319.58 227.72 320.98 225.26 323.19 M 231.92 325.90 C 232.36 326.81 232.78 327.73 233.17 328.68 C 234.51 330.78 236.76 331.38 239.15 331.08 C 241.36 329.00 242.76 325.88 240.95 323.08 C 237.89 320.89 233.36 322.58 231.92 325.90 M 513.54 326.53 C 512.94 339.51 512.17 352.68 508.34 365.19 C 506.61 370.80 504.54 376.46 500.88 381.12 C 504.93 381.26 508.99 381.25 513.03 380.88 C 517.71 380.25 522.96 378.90 525.48 374.48 C 530.66 365.64 531.21 354.71 529.31 344.84 C 527.70 336.43 521.15 329.92 513.54 326.53 M 223.57 347.99 C 217.53 357.53 213.95 368.69 213.71 380.01 C 212.99 395.24 216.47 410.48 222.77 424.30 C 226.36 431.28 229.99 438.54 235.76 443.99 C 224.08 427.76 217.96 407.94 217.01 388.06 C 216.72 376.54 217.10 364.63 221.61 353.85 C 222.23 351.91 224.55 350.15 223.57 347.99 M 443.93 352.99 C 447.90 359.30 450.25 366.55 450.98 373.97 C 451.61 381.85 452.50 389.84 450.97 397.67 C 452.67 396.05 454.00 394.02 456.00 392.74 C 458.66 391.23 462.01 391.97 464.65 390.49 C 460.44 390.41 458.19 386.64 457.71 382.91 C 455.58 372.11 451.89 360.91 443.93 352.99 M 412.29 355.90 C 414.95 387.47 410.46 420.06 396.75 448.80 C 390.77 462.04 382.18 473.85 373.65 485.52 C 378.91 483.20 382.77 478.69 386.69 474.63 C 397.83 461.63 404.79 445.55 409.16 429.14 C 413.16 414.79 415.34 399.90 415.16 385.00 C 414.99 375.28 415.17 365.28 412.29 355.90 M 536.46 370.76 C 533.66 384.47 524.24 395.97 512.97 403.85 C 507.71 407.30 502.37 410.66 497.47 414.62 C 493.48 418.45 490.71 423.37 486.72 427.22 C 489.62 427.55 492.56 427.43 495.44 427.95 C 495.39 425.04 495.33 422.05 496.34 419.28 C 497.52 416.89 499.77 415.27 501.87 413.74 C 509.21 408.81 517.29 404.80 523.57 398.44 C 532.31 390.41 536.41 378.54 537.71 367.00 C 537.18 368.21 536.83 369.49 536.46 370.76 M 498.00 386.09 C 492.63 391.41 486.53 395.91 480.70 400.71 C 478.62 402.25 477.88 404.78 477.08 407.11 C 475.80 411.41 473.20 415.33 472.83 419.89 C 474.23 420.05 476.14 419.42 477.05 420.91 C 478.42 422.31 477.88 424.42 478.16 426.19 C 481.06 423.95 482.30 420.35 484.53 417.54 C 494.60 404.11 510.13 396.08 520.36 382.81 C 513.56 386.63 505.49 385.65 498.00 386.09 M 479.87 385.95 C 479.63 387.59 479.58 389.24 479.47 390.90 C 481.98 389.77 484.19 388.10 486.34 386.41 C 484.46 385.14 481.98 386.16 479.87 385.95 M 464.26 432.35 C 458.38 438.78 452.78 445.46 446.71 451.70 C 443.85 454.89 440.92 458.59 440.67 463.06 C 440.54 466.79 441.17 470.66 443.00 473.95 C 444.07 475.59 445.63 477.89 447.93 476.98 C 452.88 472.36 454.47 465.34 455.33 458.88 C 456.34 453.96 455.28 448.49 458.24 444.11 C 462.06 438.19 466.12 432.43 470.26 426.73 C 467.80 428.05 466.24 430.45 464.26 432.35 Z" />
<path fill="#1c1a1a" opacity="1.00" d=" M 155.12 210.26 C 160.60 208.89 166.64 212.52 167.97 218.02 C 164.58 216.89 161.17 214.89 157.47 215.60 C 152.18 216.49 148.07 221.65 148.42 227.02 C 148.09 232.54 150.66 237.72 154.50 241.55 C 162.77 250.57 173.30 257.70 179.55 268.45 C 185.13 277.76 183.52 289.96 177.78 298.80 C 174.54 304.14 169.50 308.07 164.04 310.95 C 155.75 315.44 146.80 318.46 138.14 322.12 C 138.66 334.82 139.31 347.59 142.07 360.03 C 143.54 366.27 145.25 372.66 148.91 378.01 C 151.74 382.48 157.67 380.65 162.04 381.71 C 161.68 373.37 161.76 364.83 163.81 356.71 L 164.75 356.23 C 166.09 367.87 167.60 379.53 170.28 390.95 C 171.00 390.99 172.44 391.08 173.16 391.12 C 172.82 378.93 172.87 366.44 176.62 354.72 C 178.84 348.32 181.60 341.90 186.02 336.71 C 180.59 354.50 180.26 373.48 182.53 391.83 C 185.14 412.22 192.40 431.76 202.28 449.72 C 207.82 459.62 213.34 469.65 220.48 478.52 C 223.49 482.28 227.32 485.32 230.17 489.20 C 220.98 484.61 213.55 477.27 206.15 470.29 C 205.70 475.23 202.75 480.49 198.10 482.59 C 201.12 489.57 206.40 495.33 209.31 502.32 C 206.46 501.12 204.75 498.39 202.50 496.41 C 195.98 489.61 188.52 483.32 184.37 474.68 C 180.66 467.32 179.74 459.04 178.80 450.98 C 174.42 452.61 169.34 453.44 165.10 450.97 C 160.23 448.55 158.31 443.08 157.33 438.09 C 159.59 440.69 160.56 444.32 163.53 446.32 C 166.72 449.13 172.40 449.85 174.98 445.85 C 175.42 442.93 172.50 441.18 170.82 439.25 C 167.98 436.74 165.39 432.62 161.00 433.53 C 147.61 434.74 133.58 433.68 121.45 427.43 C 117.41 425.22 113.20 422.93 110.24 419.30 C 118.35 423.03 126.85 426.58 135.85 427.14 C 134.15 422.55 130.33 419.17 126.15 416.85 C 119.59 413.00 112.80 408.78 108.78 402.11 C 102.37 391.59 99.97 379.20 99.08 367.08 C 98.54 351.39 101.56 334.86 111.16 322.06 C 114.33 317.95 116.99 313.30 121.04 309.98 C 120.05 314.64 117.45 318.65 115.21 322.77 C 119.18 320.21 123.50 318.08 128.02 316.66 C 128.96 309.66 128.98 302.44 128.14 295.43 C 123.43 296.08 119.48 291.54 114.67 293.42 C 115.31 289.56 120.25 289.47 123.00 291.05 C 119.14 287.03 118.15 281.32 118.01 275.96 C 111.64 276.13 104.67 277.34 100.36 282.50 C 95.68 287.23 94.73 296.32 100.46 300.61 C 102.76 302.73 106.15 302.85 108.53 304.79 C 104.01 305.05 98.85 305.89 94.98 302.92 C 88.70 298.42 87.55 288.94 91.63 282.61 C 96.95 273.83 108.86 271.01 118.29 273.73 C 120.47 269.94 123.16 266.13 127.41 264.50 C 134.80 260.93 144.66 264.27 148.28 271.65 C 150.84 276.41 150.16 281.99 148.59 286.94 C 152.02 286.73 155.47 286.91 158.88 287.35 C 159.07 289.10 157.13 289.02 155.90 289.24 C 152.69 289.74 149.31 289.07 146.21 290.14 C 145.22 291.53 145.38 292.79 146.70 293.92 C 143.93 294.86 141.02 295.37 138.09 295.20 C 137.91 300.94 138.06 306.69 138.02 312.43 C 143.17 310.60 148.16 308.36 153.22 306.32 C 158.66 304.07 164.30 301.71 168.47 297.41 C 173.74 291.79 175.37 283.30 173.38 275.97 C 169.37 264.02 159.09 256.09 150.78 247.22 C 144.32 240.80 140.48 231.05 142.98 222.03 C 144.41 216.22 149.15 211.33 155.12 210.26 M 126.48 327.54 C 120.26 331.08 114.54 336.29 112.47 343.36 C 109.55 352.94 109.84 363.79 114.06 372.94 C 115.93 377.35 120.20 380.45 124.95 380.97 C 129.89 381.40 134.98 381.99 139.89 381.04 C 138.84 378.82 137.60 376.69 136.59 374.45 C 129.44 360.12 129.06 343.73 128.23 328.07 C 128.19 326.82 127.61 326.64 126.48 327.54 M 103.23 367.92 C 104.69 378.32 107.91 388.96 115.20 396.82 C 122.80 405.25 133.90 409.18 142.20 416.77 C 145.32 419.39 145.62 423.76 145.77 427.54 C 148.61 427.45 151.45 427.43 154.29 427.23 C 150.67 423.63 147.99 419.19 144.13 415.83 C 136.26 408.87 126.62 404.23 118.99 396.98 C 113.89 391.77 109.61 385.66 106.87 378.88 C 105.44 375.30 104.77 371.46 103.23 367.92 M 121.04 384.00 C 124.14 386.59 126.38 390.00 129.37 392.70 C 137.97 400.39 147.74 406.82 155.36 415.58 C 158.73 418.88 161.01 423.15 164.32 426.45 C 164.11 424.69 162.93 422.81 164.05 421.13 C 164.98 419.07 167.57 419.53 169.29 420.09 C 168.46 416.19 166.52 412.67 165.23 408.92 C 163.90 405.95 163.66 402.23 160.93 400.09 C 155.01 395.23 148.67 390.90 142.82 385.96 C 137.57 385.58 132.24 386.59 127.05 385.43 C 125.01 385.08 123.11 384.13 121.04 384.00 M 155.02 385.31 C 155.75 388.26 159.77 389.07 162.01 390.90 C 162.67 389.42 161.87 387.50 161.82 385.90 C 159.54 385.93 157.27 385.69 155.02 385.31 M 170.72 394.12 C 173.93 410.18 178.85 426.82 190.09 439.17 C 182.59 424.95 177.51 409.62 173.86 394.00 C 173.08 394.03 171.51 394.09 170.72 394.12 M 169.91 426.06 C 173.61 430.52 176.53 435.56 180.18 440.07 C 183.15 443.85 186.23 448.02 186.32 453.05 C 186.63 461.50 188.16 470.97 194.91 476.80 C 200.28 473.39 200.87 465.82 199.76 460.13 C 197.10 453.10 190.57 448.70 186.14 442.87 C 180.99 437.06 176.29 430.54 169.91 426.06 Z" />
<path fill="#1c1a1a" opacity="1.00" d=" M 128.03 257.98 C 136.98 255.03 147.83 259.36 152.13 267.78 C 153.21 269.77 154.38 271.92 153.83 274.28 C 151.85 268.73 147.68 263.90 142.10 261.79 C 134.07 258.17 123.81 260.63 118.23 267.40 C 117.04 268.62 117.24 271.35 114.99 271.01 C 116.46 264.61 121.80 259.69 128.03 257.98 Z" />
<path fill="#1c1a1a" opacity="1.00" d=" M 487.23 273.97 C 488.81 259.88 507.49 252.58 518.93 260.17 C 522.72 262.77 526.07 266.67 527.09 271.22 C 525.86 270.70 525.08 269.64 524.32 268.62 C 519.84 262.24 511.47 258.94 503.83 260.24 C 497.75 261.62 491.82 265.34 489.05 271.09 C 488.52 272.09 487.90 273.05 487.23 273.97 Z" />
<path fill="#1c1a1a" opacity="1.00" d=" M 246.36 263.41 C 253.61 261.93 261.03 263.74 268.05 265.61 C 267.57 267.20 265.79 267.75 264.64 268.77 C 260.29 271.64 255.50 274.82 250.11 274.78 C 247.46 273.76 245.38 271.66 242.99 270.17 C 240.45 267.75 243.85 264.24 246.36 263.41 Z" />
<path fill="#1c1a1a" opacity="1.00" d=" M 254.11 320.34 C 253.89 319.37 253.68 318.40 253.49 317.44 C 256.47 318.79 260.47 318.90 262.71 321.41 C 259.78 321.47 257.02 319.98 254.11 320.34 Z" />
<path fill="#1c1a1a" opacity="1.00" d=" M 153.76 336.14 C 154.24 329.81 160.06 325.23 165.93 324.05 C 169.85 323.71 174.29 325.37 176.35 328.86 C 172.88 326.82 168.48 325.91 164.69 327.62 C 161.25 329.30 158.26 332.36 157.42 336.18 C 156.15 342.91 160.07 349.86 157.48 356.43 C 155.46 359.95 153.73 363.74 151.02 366.79 C 150.37 363.37 152.07 360.35 153.40 357.36 C 156.42 350.52 152.53 343.21 153.76 336.14 Z" />
<path fill="#1c1a1a" opacity="1.00" d=" M 465.49 329.08 C 469.90 322.51 480.23 322.96 484.95 328.95 C 490.22 334.70 488.09 342.99 487.17 349.90 C 485.93 356.08 491.54 360.96 490.84 367.16 C 489.29 366.64 488.95 364.94 488.20 363.71 C 486.30 359.98 483.47 356.43 483.33 352.07 C 483.35 346.96 484.93 341.94 484.76 336.83 C 483.65 332.22 479.88 327.99 475.12 327.06 C 471.77 326.70 468.54 327.86 465.49 329.08 Z" />
<path fill="#1c1a1a" opacity="1.00" d=" M 119.15 452.97 C 120.00 451.28 120.43 449.40 121.57 447.86 C 121.97 452.03 125.02 455.85 129.30 456.47 C 125.55 457.84 121.76 460.22 121.59 464.72 C 120.25 462.14 119.19 458.81 116.04 457.95 C 114.93 457.31 112.94 457.66 112.60 456.15 C 115.07 456.02 117.78 455.19 119.15 452.97 Z" />
<path fill="#1c1a1a" opacity="1.00" d=" M 520.45 447.80 C 521.86 449.30 521.68 451.67 523.20 453.13 C 524.70 455.01 527.01 455.83 529.18 456.70 C 527.61 457.35 525.91 457.69 524.49 458.63 C 522.50 459.99 522.10 462.62 520.33 464.18 C 520.07 462.49 519.71 460.74 518.37 459.56 C 516.89 457.54 514.02 457.83 512.29 456.21 C 516.90 456.10 520.09 452.17 520.45 447.80 Z" />
<path fill="#1c1a1a" opacity="1.00" d=" M 166.02 506.10 C 219.70 505.87 273.39 506.12 327.07 506.00 C 376.46 506.23 425.85 505.90 475.23 506.00 C 475.02 523.67 475.41 541.35 475.04 559.02 C 372.03 558.99 269.01 559.02 166.00 559.01 C 166.01 541.37 165.98 523.74 166.02 506.10 M 320.48 511.11 C 318.63 513.61 320.03 516.86 318.24 519.26 C 319.83 521.08 323.09 521.26 323.65 518.46 C 323.21 518.33 322.33 518.07 321.89 517.94 C 322.08 517.45 322.46 516.49 322.65 516.00 C 322.11 514.29 321.47 512.61 320.48 511.11 M 334.43 516.14 C 332.91 518.68 333.77 521.98 331.94 524.32 C 332.32 525.27 332.70 526.22 333.08 527.18 C 334.06 527.37 335.05 527.61 336.02 527.88 C 336.73 526.67 337.47 525.30 336.80 523.89 C 335.97 521.31 336.09 518.39 334.43 516.14 M 304.95 523.75 C 305.47 523.40 306.52 522.71 307.04 522.37 C 304.92 523.90 303.41 525.72 304.25 528.55 C 305.71 528.43 306.92 527.86 307.90 526.84 C 310.46 524.83 306.81 521.75 307.97 519.22 C 307.53 519.86 307.11 520.51 306.70 521.18 L 306.09 519.29 C 306.48 519.20 307.25 519.04 307.63 518.95 L 306.87 516.99 C 304.21 517.69 305.22 521.63 304.95 523.75 M 317.99 522.05 C 317.82 523.67 320.15 524.44 319.57 526.17 C 316.79 525.77 314.16 527.11 311.44 526.76 C 309.86 528.27 307.53 528.25 305.53 528.72 C 306.31 529.70 307.19 530.62 307.78 531.75 C 307.53 531.43 307.03 530.81 306.77 530.50 C 306.15 530.63 304.89 530.90 304.26 531.03 C 303.85 532.68 303.21 534.27 302.88 535.95 C 305.58 534.44 307.67 536.69 309.02 538.82 C 306.65 540.16 304.65 539.04 302.99 537.35 C 302.61 538.90 302.67 540.45 303.16 542.01 C 304.21 542.96 305.11 544.04 305.82 545.28 C 308.28 551.86 316.10 555.64 322.93 554.16 C 330.56 553.51 334.79 546.31 338.31 540.41 C 339.52 537.56 334.58 538.23 333.10 538.20 C 333.52 537.71 334.36 536.73 334.78 536.25 C 334.46 536.31 333.80 536.45 333.48 536.51 C 333.20 537.28 332.93 538.06 332.66 538.84 C 332.02 539.12 330.75 539.67 330.11 539.94 C 330.13 539.23 330.17 537.80 330.19 537.08 C 328.51 535.09 326.95 532.87 324.63 531.59 C 322.24 530.28 319.21 530.80 317.08 532.37 C 317.00 531.87 316.84 530.85 316.76 530.35 L 316.43 530.45 L 316.85 532.55 C 314.94 533.80 313.69 528.65 312.39 531.19 C 312.54 532.72 314.71 533.02 315.70 534.03 C 314.38 534.51 313.28 535.30 312.38 536.40 C 312.60 537.38 312.82 538.38 313.04 539.38 C 311.14 539.37 309.54 538.24 307.97 537.33 C 306.75 534.08 308.90 531.03 311.82 529.73 C 318.62 527.03 326.79 527.27 332.83 531.77 C 331.93 530.34 331.16 528.85 330.47 527.32 C 328.08 526.26 325.45 526.10 322.90 525.75 C 323.06 524.18 323.36 522.65 323.74 521.14 C 323.40 521.07 322.71 520.94 322.36 520.88 L 321.60 521.74 C 320.49 521.28 318.55 520.41 317.99 522.05 M 333.27 529.14 L 333.33 529.89 C 335.34 531.48 334.65 527.02 333.27 529.14 M 335.29 532.53 C 334.72 532.18 333.57 531.48 333.00 531.13 C 333.81 533.32 335.37 535.68 337.49 536.81 C 338.90 534.83 337.45 532.34 336.95 530.34 C 336.28 530.93 336.23 532.41 335.29 532.53 Z" />
<path fill="#1c1a1a" opacity="1.00" d=" M 155.72 521.97 C 157.18 520.52 158.76 519.08 160.83 518.62 C 160.88 527.04 160.91 535.46 160.85 543.87 C 159.08 542.39 156.67 541.18 155.84 538.94 C 155.57 533.29 156.14 527.62 155.72 521.97 Z" />
<path fill="#1c1a1a" opacity="1.00" d=" M 480.92 518.48 C 482.11 519.32 483.94 520.10 484.07 521.79 C 484.21 527.84 483.79 533.92 484.54 539.95 C 483.42 541.15 482.22 542.29 480.91 543.28 C 480.75 535.02 480.28 526.72 480.92 518.48 Z" />
<path fill="#1c1a1a" opacity="1.00" d=" M 97.07 530.54 C 116.55 530.13 136.83 530.61 155.06 522.72 C 154.71 528.04 154.47 533.38 154.81 538.71 C 151.27 536.66 147.31 535.57 143.43 534.37 C 143.65 532.28 143.66 530.19 143.61 528.11 C 143.35 528.16 142.83 528.27 142.57 528.32 C 142.60 530.23 142.62 532.16 142.89 534.07 C 135.96 532.98 129.03 531.47 121.98 531.44 C 113.74 530.30 105.37 530.81 97.07 530.54 Z" />
<path fill="#1c1a1a" opacity="1.00" d=" M 486.08 522.84 C 504.10 531.21 524.48 530.01 543.84 530.48 C 528.86 530.92 513.67 530.60 498.95 533.85 C 494.49 535.07 489.99 536.46 486.04 538.94 C 486.98 533.63 486.78 528.16 486.08 522.84 Z" />
<path fill="#1c1a1a" opacity="1.00" d=" M 315.13 539.60 C 314.03 536.62 317.56 535.03 319.99 534.94 C 322.54 534.89 325.44 534.61 327.45 536.54 C 329.03 537.16 328.28 539.53 326.94 539.78 C 323.02 540.38 319.07 539.29 315.13 539.60 Z" />
<path fill="#1c1a1a" opacity="1.00" d=" M 305.43 543.02 C 307.35 541.23 309.76 542.55 311.96 542.80 C 314.31 542.93 316.68 542.79 319.04 542.70 C 318.73 545.98 318.83 549.37 317.65 552.50 C 312.25 551.50 309.35 546.30 305.43 543.02 Z" />
<path fill="#1c1a1a" opacity="1.00" d=" M 323.13 542.13 C 327.10 542.49 331.06 541.69 335.02 542.17 C 335.51 544.93 331.79 544.69 330.73 546.64 C 328.52 548.97 326.27 553.09 322.45 551.77 C 323.26 548.61 322.86 545.34 323.13 542.13 Z" />
<path fill="#1c1a1a" opacity="1.00" d=" M 246.88 561.15 C 250.18 561.88 253.57 561.82 256.93 561.79 C 302.09 562.07 347.26 561.57 392.42 561.89 C 368.31 584.55 344.09 607.12 319.87 629.67 C 315.82 625.20 311.18 621.32 306.84 617.14 C 286.88 598.45 266.80 579.86 246.88 561.15 Z" />
</g>
<g id="#efdcbeff">
<path fill="#efdcbe" opacity="1.00" d=" M 317.23 0.00 L 330.71 0.00 C 368.00 1.14 405.15 8.23 439.95 21.77 C 481.89 37.94 520.44 62.94 552.14 94.82 C 583.00 125.49 607.40 162.59 623.62 202.95 C 638.28 239.21 645.98 278.14 647.00 317.21 L 647.00 330.79 C 645.78 371.24 637.45 411.53 621.65 448.83 C 605.55 487.13 582.03 522.33 552.63 551.69 C 522.37 582.24 485.84 606.51 446.06 622.81 C 409.53 637.87 370.22 645.81 330.76 647.00 L 316.33 647.00 C 276.58 645.82 236.98 637.78 200.23 622.51 C 160.93 606.31 124.82 582.31 94.84 552.15 C 63.75 521.25 39.20 483.82 23.00 443.09 C 8.69 407.41 1.17 369.16 0.00 330.77 L 0.00 317.24 C 0.83 288.41 5.04 259.64 13.29 231.99 C 27.88 182.49 54.46 136.50 90.38 99.42 C 117.45 71.06 149.85 47.85 185.29 31.09 C 226.43 11.54 271.73 1.13 317.23 0.00 M 304.84 21.99 C 301.27 30.79 307.49 42.31 317.13 43.29 C 314.49 49.72 309.99 55.42 304.44 59.58 C 301.45 61.95 297.20 62.73 295.00 66.01 C 294.39 68.79 297.93 69.23 299.64 70.40 C 302.69 71.60 304.38 74.85 304.06 78.05 C 304.59 81.82 301.58 84.80 298.62 86.59 C 292.09 90.45 282.22 84.76 282.79 77.07 C 284.53 76.74 286.26 76.33 287.98 75.93 C 288.54 73.16 288.37 69.88 286.04 67.93 C 282.16 64.32 277.68 60.57 276.83 55.00 C 275.82 51.63 277.85 46.94 281.88 47.37 C 285.03 47.88 285.28 51.67 287.40 53.45 C 289.96 54.50 293.18 52.76 293.74 50.05 C 295.73 42.48 287.00 34.99 279.82 37.81 C 273.66 40.00 270.28 46.31 268.37 52.18 C 266.32 59.81 265.39 68.04 267.25 75.80 C 268.35 76.04 269.44 76.34 270.50 76.72 C 271.39 77.76 270.49 78.96 270.07 79.97 C 267.91 84.24 264.01 88.06 259.08 88.61 C 256.04 89.08 253.30 87.37 250.93 85.72 C 252.80 82.16 252.77 77.31 249.63 74.46 C 245.37 69.51 237.30 70.62 233.04 74.96 C 228.81 79.49 229.37 87.70 234.49 91.35 C 237.74 94.02 242.26 93.93 246.14 93.03 C 244.30 95.65 245.36 98.75 246.79 101.28 C 251.86 111.44 256.42 121.94 259.09 133.01 C 258.97 134.82 260.85 134.47 262.00 134.51 C 301.54 134.57 341.09 134.45 380.63 134.51 C 383.19 120.99 389.19 108.40 395.06 96.05 C 394.96 94.82 394.59 93.67 393.94 92.60 C 398.37 95.10 404.41 93.32 407.29 89.26 C 411.01 84.70 409.91 77.20 405.23 73.73 C 400.59 70.00 392.81 70.31 389.27 75.40 C 386.82 78.35 388.07 82.42 388.10 85.85 C 385.88 88.10 382.49 89.63 379.33 88.60 C 374.24 87.21 370.05 82.49 369.12 77.33 C 370.40 76.75 371.68 76.18 373.01 75.70 C 373.54 74.55 373.93 73.32 373.96 72.04 C 374.33 64.99 374.38 57.72 371.97 50.99 C 370.11 45.58 366.79 39.99 361.18 37.89 C 354.36 34.89 345.26 41.51 347.04 49.09 C 347.18 51.99 350.65 55.38 353.45 53.30 C 355.63 52.04 355.75 49.15 357.33 47.37 C 360.36 45.81 364.28 48.73 364.18 52.04 C 364.41 57.58 360.50 62.19 356.65 65.73 C 354.27 67.87 351.27 70.47 352.01 74.07 C 352.12 76.71 355.27 76.84 357.23 77.13 C 357.62 82.24 353.11 86.42 348.50 87.68 C 341.68 89.59 334.01 83.19 335.26 76.05 C 336.15 71.41 340.80 69.24 344.80 67.80 C 345.39 65.83 344.62 64.09 342.67 63.34 C 334.34 59.51 326.64 52.83 323.76 43.90 C 329.29 41.78 334.08 37.06 335.33 31.07 C 337.77 21.77 329.69 11.49 320.06 11.79 C 313.47 11.52 307.26 15.95 304.84 21.99 M 260.42 137.01 C 262.52 149.11 263.69 161.36 263.22 173.65 C 301.17 174.12 339.13 173.74 377.08 173.95 C 376.68 161.63 377.45 149.21 380.00 137.14 C 340.14 136.96 300.28 137.37 260.42 137.01 M 245.94 176.39 C 247.04 179.08 249.52 180.84 251.98 182.20 C 258.10 185.42 265.14 186.44 271.98 186.11 C 280.18 186.32 288.38 184.82 296.05 181.94 C 295.41 183.61 293.43 183.91 291.99 184.58 C 283.91 187.27 275.31 188.30 266.82 187.95 C 266.23 191.62 265.75 195.30 264.84 198.90 C 277.48 201.14 290.53 200.38 303.07 197.86 C 313.31 195.70 322.55 190.70 331.85 186.14 C 313.41 202.19 287.26 205.46 263.77 202.74 C 262.83 215.02 257.38 226.89 248.47 235.42 C 243.14 240.78 236.40 244.31 230.07 248.28 C 232.02 253.03 232.95 258.48 236.30 262.49 C 240.93 265.94 245.70 259.44 245.24 255.06 C 245.33 252.07 241.62 251.64 240.37 249.45 C 245.16 249.83 249.90 253.20 249.48 258.48 C 256.06 258.79 262.51 260.53 268.40 263.50 C 270.13 264.45 272.29 264.97 273.34 266.81 C 272.75 266.66 271.56 266.36 270.97 266.21 C 267.04 270.89 262.73 275.60 256.97 278.00 C 254.71 279.10 251.96 279.41 250.13 281.27 C 250.34 284.63 250.53 289.28 254.07 290.91 C 259.70 291.66 265.44 290.40 271.08 291.32 C 273.44 291.99 275.60 290.64 277.44 289.32 C 282.98 285.40 288.64 281.48 295.08 279.17 C 300.50 276.99 306.37 276.49 312.05 275.33 C 313.60 276.85 312.52 279.07 312.73 280.95 C 312.74 293.86 310.96 307.16 304.73 318.65 C 296.47 333.72 283.09 345.36 268.51 354.11 C 270.84 357.51 274.29 359.89 277.11 362.85 C 287.92 374.03 299.10 384.84 310.09 395.84 C 313.75 398.93 316.45 403.04 320.38 405.82 C 339.63 387.57 357.34 367.23 369.43 343.46 C 385.04 313.05 393.11 279.00 394.50 244.95 C 394.81 251.93 395.33 258.95 394.68 265.93 C 392.06 303.82 379.78 341.58 356.77 372.06 C 347.05 385.17 335.47 396.73 323.55 407.82 C 325.14 410.12 327.48 411.73 329.46 413.66 C 339.73 423.32 349.85 433.14 359.88 443.05 C 362.11 445.16 364.02 447.67 366.64 449.34 C 372.44 440.12 378.12 430.80 382.84 420.96 C 401.70 381.62 407.36 337.18 405.83 293.94 C 405.67 289.97 404.38 285.83 405.56 281.95 C 408.50 301.51 408.98 321.36 407.94 341.10 C 405.41 375.57 395.75 409.92 377.35 439.37 C 367.03 456.77 353.80 472.26 339.68 486.68 C 338.58 487.75 337.47 489.05 335.81 489.17 C 336.17 487.67 337.34 486.63 338.31 485.51 C 347.57 475.19 356.21 464.32 364.14 452.95 C 349.28 438.96 335.05 424.30 320.72 409.77 C 319.76 410.48 318.85 411.26 318.02 412.12 C 305.13 424.89 290.94 436.28 278.15 449.15 C 273.57 453.75 269.46 459.00 267.14 465.11 C 264.45 472.10 263.32 479.63 263.24 487.10 C 257.94 485.06 252.37 482.83 248.75 478.22 C 243.21 471.45 242.91 462.10 243.55 453.78 C 254.03 447.53 266.16 444.51 277.02 438.92 C 285.75 434.86 293.44 428.98 300.99 423.09 C 298.60 423.77 296.53 425.18 294.36 426.35 C 287.13 430.03 279.35 432.58 271.44 434.33 C 270.09 434.53 268.68 435.05 267.33 434.59 C 259.42 431.65 252.89 425.91 247.56 419.49 C 246.73 418.41 245.87 417.31 245.48 416.00 C 250.68 396.88 265.10 381.66 281.41 371.15 C 276.16 365.94 270.70 360.89 265.98 355.20 C 245.35 365.58 233.27 390.15 237.47 412.82 C 238.08 417.08 240.17 420.91 241.08 425.08 C 235.82 416.92 234.04 406.65 234.43 397.01 C 235.00 381.09 243.74 365.79 257.02 357.03 C 258.20 356.20 259.62 355.86 260.97 355.41 C 253.81 354.39 246.54 353.19 240.06 349.81 C 233.82 346.53 227.37 342.01 225.11 335.00 C 224.49 332.26 223.28 328.64 225.67 326.44 C 225.57 329.69 225.49 333.50 228.02 335.94 C 235.47 343.41 250.40 339.75 253.43 329.58 C 256.55 320.75 249.29 310.17 239.94 309.76 C 232.67 309.28 225.84 312.88 220.29 317.28 C 212.47 323.49 207.54 332.35 203.45 341.29 C 202.67 340.39 202.90 339.11 202.74 338.04 C 202.55 332.99 201.09 328.07 200.96 323.02 C 200.74 317.35 203.60 311.62 208.52 308.70 C 212.87 305.71 218.44 306.24 223.25 307.61 C 216.24 300.09 202.95 304.21 199.31 313.24 C 194.21 323.05 200.26 333.84 198.62 344.12 C 198.24 350.87 194.07 356.43 191.46 362.45 C 189.80 366.46 186.14 369.58 185.67 374.06 C 185.16 378.03 185.16 382.07 185.50 386.06 C 187.38 408.32 194.56 430.02 205.67 449.36 C 213.30 463.63 223.58 476.50 236.04 486.85 C 239.08 489.16 243.13 488.94 246.73 489.51 C 246.65 494.09 246.57 498.68 246.67 503.27 C 284.14 503.42 321.62 503.39 359.09 503.26 C 370.96 503.12 382.85 503.50 394.69 502.86 C 394.25 499.12 394.52 495.21 393.09 491.66 C 392.57 491.50 391.53 491.17 391.01 491.01 C 390.70 489.58 392.47 489.08 393.12 488.10 C 405.82 474.65 418.16 460.64 427.52 444.60 C 438.42 427.02 445.55 406.79 445.94 385.98 C 446.46 379.91 445.68 373.82 443.96 367.99 C 445.98 369.75 446.25 372.64 447.08 375.05 C 450.12 387.07 450.27 400.02 446.76 411.96 C 441.34 430.81 430.50 447.50 419.45 463.49 C 412.27 472.74 404.76 481.80 396.27 489.89 C 410.11 481.61 419.63 468.14 430.59 456.65 C 435.05 452.42 439.08 447.79 443.28 443.31 C 456.65 429.80 465.71 411.99 468.14 393.09 C 469.15 393.35 470.16 393.63 471.17 393.93 C 469.49 399.28 468.51 404.84 466.74 410.17 C 462.67 422.68 456.03 434.38 446.98 443.97 C 440.49 450.89 434.10 457.95 428.69 465.77 C 423.89 472.80 418.49 479.45 412.23 485.24 C 411.02 486.47 409.49 487.52 408.90 489.23 C 418.43 483.55 426.86 476.24 435.03 468.79 C 435.62 474.11 437.64 480.30 443.11 482.38 C 440.40 489.51 435.28 495.29 432.17 502.19 C 436.13 500.47 438.47 496.37 441.60 493.50 C 447.33 487.25 454.15 481.59 457.53 473.60 C 460.98 466.48 461.39 458.49 463.09 450.90 C 466.19 452.14 469.62 453.13 472.96 452.28 C 479.42 451.17 484.29 444.45 483.66 438.03 C 481.69 442.75 478.30 447.55 473.01 448.74 C 470.25 449.57 467.79 447.59 465.83 445.91 C 468.18 441.23 471.72 437.13 475.98 434.10 C 479.59 433.28 483.30 433.96 486.96 433.96 C 494.72 434.05 502.67 433.57 510.02 430.86 C 517.23 428.36 524.51 425.26 530.10 419.91 C 527.76 420.27 525.81 421.68 523.66 422.54 C 517.37 425.14 510.78 427.23 504.02 428.05 C 506.97 420.49 514.53 416.70 521.08 412.79 C 527.07 408.96 531.95 403.40 534.76 396.86 C 539.67 385.61 542.36 373.32 542.04 361.03 C 541.91 346.08 537.81 330.56 527.83 319.10 C 525.13 316.07 523.21 312.33 519.96 309.83 C 520.92 314.21 523.04 318.18 525.20 322.06 C 521.69 319.84 517.92 318.08 513.95 316.88 C 512.96 309.77 513.19 302.50 513.27 295.34 C 517.77 294.60 522.20 293.47 526.71 292.79 C 526.48 292.38 526.03 291.55 525.80 291.14 C 523.82 290.15 521.70 290.23 519.65 290.93 C 521.85 286.23 524.40 281.28 524.03 275.95 C 530.31 276.06 537.22 277.31 541.43 282.45 C 546.23 287.13 546.87 295.91 541.57 300.45 C 539.19 302.88 535.78 303.43 532.77 304.67 C 538.43 306.24 545.56 305.46 549.31 300.46 C 554.66 294.25 553.16 284.04 547.23 278.73 C 540.93 272.83 531.37 271.40 523.26 273.69 C 520.84 267.91 515.36 263.49 509.04 262.97 C 502.49 262.32 496.00 266.17 492.78 271.79 C 490.39 276.57 491.05 282.22 493.06 287.01 C 489.42 287.16 485.32 286.12 482.08 288.21 C 482.88 288.97 483.64 290.03 484.92 289.79 C 488.60 289.75 492.29 289.57 495.95 290.10 C 496.14 291.61 495.93 293.23 496.54 294.66 C 498.48 296.03 501.09 295.34 503.31 295.42 C 504.12 300.98 503.41 306.63 503.86 312.22 C 495.71 308.65 487.10 306.07 479.30 301.76 C 470.03 296.67 465.33 284.35 469.55 274.53 C 473.74 264.51 481.70 256.81 489.32 249.34 C 494.44 244.49 498.70 238.28 499.50 231.11 C 500.86 223.74 497.54 215.59 490.95 211.82 C 485.01 207.87 474.97 210.53 473.82 218.18 C 477.22 216.32 481.22 214.61 485.14 215.75 C 490.82 217.19 494.25 223.31 493.41 228.97 C 493.41 236.98 486.91 242.50 481.70 247.67 C 474.51 255.09 465.59 261.47 461.50 271.31 C 456.58 283.28 461.26 297.61 470.89 305.82 C 480.18 313.49 491.98 316.90 502.96 321.34 L 503.60 322.16 C 503.69 328.06 502.99 333.96 502.82 339.86 C 501.17 352.60 499.99 366.10 493.34 377.38 C 490.73 382.39 484.52 380.75 479.95 381.56 C 479.67 375.34 479.61 369.09 478.74 362.92 C 478.28 360.53 478.04 357.95 476.39 356.04 C 476.18 368.02 473.29 379.75 471.45 391.55 C 470.89 391.38 469.77 391.04 469.21 390.87 C 468.96 380.48 467.80 369.37 461.01 360.98 C 452.79 350.30 441.62 342.16 434.13 330.87 C 424.96 316.95 421.15 300.33 419.07 284.00 C 416.81 267.02 417.41 249.72 413.86 232.90 C 409.74 212.41 400.83 192.67 387.07 176.84 C 354.04 176.75 320.99 176.54 287.95 176.68 C 276.29 176.87 264.62 176.13 252.97 176.72 C 250.62 176.87 248.26 176.86 245.94 176.39 M 155.12 210.26 C 149.15 211.33 144.41 216.22 142.98 222.03 C 140.48 231.05 144.32 240.80 150.78 247.22 C 159.09 256.09 169.37 264.02 173.38 275.97 C 175.37 283.30 173.74 291.79 168.47 297.41 C 164.30 301.71 158.66 304.07 153.22 306.32 C 148.16 308.36 143.17 310.60 138.02 312.43 C 138.06 306.69 137.91 300.94 138.09 295.20 C 141.02 295.37 143.93 294.86 146.70 293.92 C 145.38 292.79 145.22 291.53 146.21 290.14 C 149.31 289.07 152.69 289.74 155.90 289.24 C 157.13 289.02 159.07 289.10 158.88 287.35 C 155.47 286.91 152.02 286.73 148.59 286.94 C 150.16 281.99 150.84 276.41 148.28 271.65 C 144.66 264.27 134.80 260.93 127.41 264.50 C 123.16 266.13 120.47 269.94 118.29 273.73 C 108.86 271.01 96.95 273.83 91.63 282.61 C 87.55 288.94 88.70 298.42 94.98 302.92 C 98.85 305.89 104.01 305.05 108.53 304.79 C 106.15 302.85 102.76 302.73 100.46 300.61 C 94.73 296.32 95.68 287.23 100.36 282.50 C 104.67 277.34 111.64 276.13 118.01 275.96 C 118.15 281.32 119.14 287.03 123.00 291.05 C 120.25 289.47 115.31 289.56 114.67 293.42 C 119.48 291.54 123.43 296.08 128.14 295.43 C 128.98 302.44 128.96 309.66 128.02 316.66 C 123.50 318.08 119.18 320.21 115.21 322.77 C 117.45 318.65 120.05 314.64 121.04 309.98 C 116.99 313.30 114.33 317.95 111.16 322.06 C 101.56 334.86 98.54 351.39 99.08 367.08 C 99.97 379.20 102.37 391.59 108.78 402.11 C 112.80 408.78 119.59 413.00 126.15 416.85 C 130.33 419.17 134.15 422.55 135.85 427.14 C 126.85 426.58 118.35 423.03 110.24 419.30 C 113.20 422.93 117.41 425.22 121.45 427.43 C 133.58 433.68 147.61 434.74 161.00 433.53 C 165.39 432.62 167.98 436.74 170.82 439.25 C 172.50 441.18 175.42 442.93 174.98 445.85 C 172.40 449.85 166.72 449.13 163.53 446.32 C 160.56 444.32 159.59 440.69 157.33 438.09 C 158.31 443.08 160.23 448.55 165.10 450.97 C 169.34 453.44 174.42 452.61 178.80 450.98 C 179.74 459.04 180.66 467.32 184.37 474.68 C 188.52 483.32 195.98 489.61 202.50 496.41 C 204.75 498.39 206.46 501.12 209.31 502.32 C 206.40 495.33 201.12 489.57 198.10 482.59 C 202.75 480.49 205.70 475.23 206.15 470.29 C 213.55 477.27 220.98 484.61 230.17 489.20 C 227.32 485.32 223.49 482.28 220.48 478.52 C 213.34 469.65 207.82 459.62 202.28 449.72 C 192.40 431.76 185.14 412.22 182.53 391.83 C 180.26 373.48 180.59 354.50 186.02 336.71 C 181.60 341.90 178.84 348.32 176.62 354.72 C 172.87 366.44 172.82 378.93 173.16 391.12 C 172.44 391.08 171.00 390.99 170.28 390.95 C 167.60 379.53 166.09 367.87 164.75 356.23 L 163.81 356.71 C 161.76 364.83 161.68 373.37 162.04 381.71 C 157.67 380.65 151.74 382.48 148.91 378.01 C 145.25 372.66 143.54 366.27 142.07 360.03 C 139.31 347.59 138.66 334.82 138.14 322.12 C 146.80 318.46 155.75 315.44 164.04 310.95 C 169.50 308.07 174.54 304.14 177.78 298.80 C 183.52 289.96 185.13 277.76 179.55 268.45 C 173.30 257.70 162.77 250.57 154.50 241.55 C 150.66 237.72 148.09 232.54 148.42 227.02 C 148.07 221.65 152.18 216.49 157.47 215.60 C 161.17 214.89 164.58 216.89 167.97 218.02 C 166.64 212.52 160.60 208.89 155.12 210.26 M 128.03 257.98 C 121.80 259.69 116.46 264.61 114.99 271.01 C 117.24 271.35 117.04 268.62 118.23 267.40 C 123.81 260.63 134.07 258.17 142.10 261.79 C 147.68 263.90 151.85 268.73 153.83 274.28 C 154.38 271.92 153.21 269.77 152.13 267.78 C 147.83 259.36 136.98 255.03 128.03 257.98 M 487.23 273.97 C 487.90 273.05 488.52 272.09 489.05 271.09 C 491.82 265.34 497.75 261.62 503.83 260.24 C 511.47 258.94 519.84 262.24 524.32 268.62 C 525.08 269.64 525.86 270.70 527.09 271.22 C 526.07 266.67 522.72 262.77 518.93 260.17 C 507.49 252.58 488.81 259.88 487.23 273.97 M 246.36 263.41 C 243.85 264.24 240.45 267.75 242.99 270.17 C 245.38 271.66 247.46 273.76 250.11 274.78 C 255.50 274.82 260.29 271.64 264.64 268.77 C 265.79 267.75 267.57 267.20 268.05 265.61 C 261.03 263.74 253.61 261.93 246.36 263.41 M 254.11 320.34 C 257.02 319.98 259.78 321.47 262.71 321.41 C 260.47 318.90 256.47 318.79 253.49 317.44 C 253.68 318.40 253.89 319.37 254.11 320.34 M 153.76 336.14 C 152.53 343.21 156.42 350.52 153.40 357.36 C 152.07 360.35 150.37 363.37 151.02 366.79 C 153.73 363.74 155.46 359.95 157.48 356.43 C 160.07 349.86 156.15 342.91 157.42 336.18 C 158.26 332.36 161.25 329.30 164.69 327.62 C 168.48 325.91 172.88 326.82 176.35 328.86 C 174.29 325.37 169.85 323.71 165.93 324.05 C 160.06 325.23 154.24 329.81 153.76 336.14 M 465.49 329.08 C 468.54 327.86 471.77 326.70 475.12 327.06 C 479.88 327.99 483.65 332.22 484.76 336.83 C 484.93 341.94 483.35 346.96 483.33 352.07 C 483.47 356.43 486.30 359.98 488.20 363.71 C 488.95 364.94 489.29 366.64 490.84 367.16 C 491.54 360.96 485.93 356.08 487.17 349.90 C 488.09 342.99 490.22 334.70 484.95 328.95 C 480.23 322.96 469.90 322.51 465.49 329.08 M 119.15 452.97 C 117.78 455.19 115.07 456.02 112.60 456.15 C 112.94 457.66 114.93 457.31 116.04 457.95 C 119.19 458.81 120.25 462.14 121.59 464.72 C 121.76 460.22 125.55 457.84 129.30 456.47 C 125.02 455.85 121.97 452.03 121.57 447.86 C 120.43 449.40 120.00 451.28 119.15 452.97 M 520.45 447.80 C 520.09 452.17 516.90 456.10 512.29 456.21 C 514.02 457.83 516.89 457.54 518.37 459.56 C 519.71 460.74 520.07 462.49 520.33 464.18 C 522.10 462.62 522.50 459.99 524.49 458.63 C 525.91 457.69 527.61 457.35 529.18 456.70 C 527.01 455.83 524.70 455.01 523.20 453.13 C 521.68 451.67 521.86 449.30 520.45 447.80 M 166.02 506.10 C 165.98 523.74 166.01 541.37 166.00 559.01 C 269.01 559.02 372.03 558.99 475.04 559.02 C 475.41 541.35 475.02 523.67 475.23 506.00 C 425.85 505.90 376.46 506.23 327.07 506.00 C 273.39 506.12 219.70 505.87 166.02 506.10 M 155.72 521.97 C 156.14 527.62 155.57 533.29 155.84 538.94 C 156.67 541.18 159.08 542.39 160.85 543.87 C 160.91 535.46 160.88 527.04 160.83 518.62 C 158.76 519.08 157.18 520.52 155.72 521.97 M 480.92 518.48 C 480.28 526.72 480.75 535.02 480.91 543.28 C 482.22 542.29 483.42 541.15 484.54 539.95 C 483.79 533.92 484.21 527.84 484.07 521.79 C 483.94 520.10 482.11 519.32 480.92 518.48 M 97.07 530.54 C 105.37 530.81 113.74 530.30 121.98 531.44 C 129.03 531.47 135.96 532.98 142.89 534.07 C 142.62 532.16 142.60 530.23 142.57 528.32 C 142.83 528.27 143.35 528.16 143.61 528.11 C 143.66 530.19 143.65 532.28 143.43 534.37 C 147.31 535.57 151.27 536.66 154.81 538.71 C 154.47 533.38 154.71 528.04 155.06 522.72 C 136.83 530.61 116.55 530.13 97.07 530.54 M 486.08 522.84 C 486.78 528.16 486.98 533.63 486.04 538.94 C 489.99 536.46 494.49 535.07 498.95 533.85 C 513.67 530.60 528.86 530.92 543.84 530.48 C 524.48 530.01 504.10 531.21 486.08 522.84 M 246.88 561.15 C 266.80 579.86 286.88 598.45 306.84 617.14 C 311.18 621.32 315.82 625.20 319.87 629.67 C 344.09 607.12 368.31 584.55 392.42 561.89 C 347.26 561.57 302.09 562.07 256.93 561.79 C 253.57 561.82 250.18 561.88 246.88 561.15 Z" />
<path fill="#efdcbe" opacity="1.00" d=" M 317.17 21.13 C 321.37 19.49 327.00 22.24 327.01 27.06 C 327.68 32.78 319.99 37.43 315.57 33.33 C 311.26 30.44 311.96 22.66 317.17 21.13 M 316.48 29.54 C 317.61 32.01 320.69 32.04 322.78 30.87 C 323.80 29.39 324.11 27.65 324.11 25.88 C 322.78 23.64 320.20 23.33 317.88 23.97 C 316.30 25.36 315.24 27.54 316.48 29.54 Z" />
<path fill="#efdcbe" opacity="1.00" d=" M 235.43 80.69 C 237.10 81.17 236.76 84.23 236.68 85.74 C 234.66 86.08 234.75 82.01 235.43 80.69 Z" />
<path fill="#efdcbe" opacity="1.00" d=" M 404.31 80.78 C 406.76 82.52 404.76 86.68 402.38 87.60 C 403.18 85.37 403.91 83.11 404.31 80.78 Z" />
<path fill="#efdcbe" opacity="1.00" d=" M 338.06 186.54 C 345.31 186.64 352.83 187.82 358.83 192.22 C 366.55 197.35 371.48 205.97 373.08 214.99 C 374.96 225.16 373.03 235.91 368.04 244.93 C 367.14 246.62 365.64 248.14 365.55 250.14 C 367.19 272.00 362.81 295.05 349.83 313.09 C 347.21 316.66 344.64 320.41 341.11 323.15 C 342.65 320.17 345.12 317.81 346.90 314.97 C 358.57 297.31 363.48 275.63 361.96 254.61 C 350.39 268.93 331.78 275.81 313.76 276.35 C 313.82 275.97 313.96 275.20 314.02 274.82 C 332.71 271.43 351.69 262.75 362.78 246.69 C 368.82 237.08 371.58 225.08 368.98 213.91 C 366.68 202.84 358.74 192.78 347.91 189.05 C 344.76 187.73 341.26 187.70 338.06 186.54 Z" />
<path fill="#efdcbe" opacity="1.00" d=" M 288.26 220.53 C 292.10 217.24 294.92 212.89 299.11 210.01 C 303.20 211.62 307.18 214.21 311.78 214.03 C 311.09 214.54 310.40 215.05 309.71 215.55 C 307.19 215.13 304.68 214.37 302.10 214.57 C 298.81 215.15 296.55 217.99 294.85 220.65 C 300.49 224.55 307.76 224.42 314.07 222.42 L 313.56 223.77 C 310.43 224.66 307.41 226.28 304.08 226.18 C 298.43 226.08 293.49 223.03 288.18 221.55 C 288.20 221.29 288.24 220.78 288.26 220.53 Z" />
<path fill="#efdcbe" opacity="1.00" d=" M 318.37 214.59 C 320.21 214.31 322.03 213.85 323.83 213.35 C 320.23 216.06 315.37 216.06 311.07 216.00 C 313.07 214.04 315.88 214.95 318.37 214.59 Z" />
<path fill="#efdcbe" opacity="1.00" d=" M 314.70 222.20 C 318.09 221.21 321.35 219.58 324.93 219.34 C 317.76 222.14 313.09 228.60 308.15 234.18 C 305.09 238.52 298.92 236.81 294.90 239.67 C 288.54 244.15 285.79 251.84 283.72 258.98 C 283.55 251.19 286.66 243.51 291.32 237.36 C 295.32 232.18 303.31 235.44 307.52 230.53 C 309.97 227.84 313.33 225.69 314.70 222.20 Z" />
<path fill="#efdcbe" opacity="1.00" d=" M 236.08 318.45 C 240.20 318.28 245.13 318.71 247.56 322.56 C 250.98 327.23 247.34 333.51 242.81 335.86 C 238.89 337.47 234.55 336.75 231.13 334.32 C 233.92 335.44 237.21 335.65 239.96 334.29 C 243.68 332.13 246.24 326.69 243.23 322.94 C 241.57 320.39 238.46 319.99 236.08 318.45 Z" />
<path fill="#efdcbe" opacity="1.00" d=" M 225.26 323.19 C 227.72 320.98 230.85 319.58 234.12 319.11 C 231.12 320.73 227.43 321.31 225.38 324.34 C 221.56 327.58 221.58 332.92 222.23 337.46 C 213.62 347.84 208.37 360.67 206.08 373.88 C 200.93 404.59 208.09 437.18 225.63 462.90 C 223.69 461.76 222.71 459.65 221.40 457.91 C 212.81 445.77 206.72 431.88 203.50 417.37 C 199.35 400.21 200.03 382.12 203.94 364.98 C 207.56 349.64 214.54 334.84 225.26 323.19 Z" />
<path fill="#efdcbe" opacity="1.00" d=" M 231.92 325.90 C 233.36 322.58 237.89 320.89 240.95 323.08 C 242.76 325.88 241.36 329.00 239.15 331.08 C 236.76 331.38 234.51 330.78 233.17 328.68 C 232.78 327.73 232.36 326.81 231.92 325.90 Z" />
<path fill="#efdcbe" opacity="1.00" d=" M 126.48 327.54 C 127.61 326.64 128.19 326.82 128.23 328.07 C 129.06 343.73 129.44 360.12 136.59 374.45 C 137.60 376.69 138.84 378.82 139.89 381.04 C 134.98 381.99 129.89 381.40 124.95 380.97 C 120.20 380.45 115.93 377.35 114.06 372.94 C 109.84 363.79 109.55 352.94 112.47 343.36 C 114.54 336.29 120.26 331.08 126.48 327.54 Z" />
<path fill="#efdcbe" opacity="1.00" d=" M 513.54 326.53 C 521.15 329.92 527.70 336.43 529.31 344.84 C 531.21 354.71 530.66 365.64 525.48 374.48 C 522.96 378.90 517.71 380.25 513.03 380.88 C 508.99 381.25 504.93 381.26 500.88 381.12 C 504.54 376.46 506.61 370.80 508.34 365.19 C 512.17 352.68 512.94 339.51 513.54 326.53 Z" />
<path fill="#efdcbe" opacity="1.00" d=" M 223.57 347.99 C 224.55 350.15 222.23 351.91 221.61 353.85 C 217.10 364.63 216.72 376.54 217.01 388.06 C 217.96 407.94 224.08 427.76 235.76 443.99 C 229.99 438.54 226.36 431.28 222.77 424.30 C 216.47 410.48 212.99 395.24 213.71 380.01 C 213.95 368.69 217.53 357.53 223.57 347.99 Z" />
<path fill="#efdcbe" opacity="1.00" d=" M 443.93 352.99 C 451.89 360.91 455.58 372.11 457.71 382.91 C 458.19 386.64 460.44 390.41 464.65 390.49 C 462.01 391.97 458.66 391.23 456.00 392.74 C 454.00 394.02 452.67 396.05 450.97 397.67 C 452.50 389.84 451.61 381.85 450.98 373.97 C 450.25 366.55 447.90 359.30 443.93 352.99 Z" />
<path fill="#efdcbe" opacity="1.00" d=" M 412.29 355.90 C 415.17 365.28 414.99 375.28 415.16 385.00 C 415.34 399.90 413.16 414.79 409.16 429.14 C 404.79 445.55 397.83 461.63 386.69 474.63 C 382.77 478.69 378.91 483.20 373.65 485.52 C 382.18 473.85 390.77 462.04 396.75 448.80 C 410.46 420.06 414.95 387.47 412.29 355.90 Z" />
<path fill="#efdcbe" opacity="1.00" d=" M 536.46 370.76 C 536.83 369.49 537.18 368.21 537.71 367.00 C 536.41 378.54 532.31 390.41 523.57 398.44 C 517.29 404.80 509.21 408.81 501.87 413.74 C 499.77 415.27 497.52 416.89 496.34 419.28 C 495.33 422.05 495.39 425.04 495.44 427.95 C 492.56 427.43 489.62 427.55 486.72 427.22 C 490.71 423.37 493.48 418.45 497.47 414.62 C 502.37 410.66 507.71 407.30 512.97 403.85 C 524.24 395.97 533.66 384.47 536.46 370.76 Z" />
<path fill="#efdcbe" opacity="1.00" d=" M 103.23 367.92 C 104.77 371.46 105.44 375.30 106.87 378.88 C 109.61 385.66 113.89 391.77 118.99 396.98 C 126.62 404.23 136.26 408.87 144.13 415.83 C 147.99 419.19 150.67 423.63 154.29 427.23 C 151.45 427.43 148.61 427.45 145.77 427.54 C 145.62 423.76 145.32 419.39 142.20 416.77 C 133.90 409.18 122.80 405.25 115.20 396.82 C 107.91 388.96 104.69 378.32 103.23 367.92 Z" />
<path fill="#efdcbe" opacity="1.00" d=" M 498.00 386.09 C 505.49 385.65 513.56 386.63 520.36 382.81 C 510.13 396.08 494.60 404.11 484.53 417.54 C 482.30 420.35 481.06 423.95 478.16 426.19 C 477.88 424.42 478.42 422.31 477.05 420.91 C 476.14 419.42 474.23 420.05 472.83 419.89 C 473.20 415.33 475.80 411.41 477.08 407.11 C 477.88 404.78 478.62 402.25 480.70 400.71 C 486.53 395.91 492.63 391.41 498.00 386.09 Z" />
<path fill="#efdcbe" opacity="1.00" d=" M 121.04 384.00 C 123.11 384.13 125.01 385.08 127.05 385.43 C 132.24 386.59 137.57 385.58 142.82 385.96 C 148.67 390.90 155.01 395.23 160.93 400.09 C 163.66 402.23 163.90 405.95 165.23 408.92 C 166.52 412.67 168.46 416.19 169.29 420.09 C 167.57 419.53 164.98 419.07 164.05 421.13 C 162.93 422.81 164.11 424.69 164.32 426.45 C 161.01 423.15 158.73 418.88 155.36 415.58 C 147.74 406.82 137.97 400.39 129.37 392.70 C 126.38 390.00 124.14 386.59 121.04 384.00 Z" />
<path fill="#efdcbe" opacity="1.00" d=" M 155.02 385.31 C 157.27 385.69 159.54 385.93 161.82 385.90 C 161.87 387.50 162.67 389.42 162.01 390.90 C 159.77 389.07 155.75 388.26 155.02 385.31 Z" />
<path fill="#efdcbe" opacity="1.00" d=" M 479.87 385.95 C 481.98 386.16 484.46 385.14 486.34 386.41 C 484.19 388.10 481.98 389.77 479.47 390.90 C 479.58 389.24 479.63 387.59 479.87 385.95 Z" />
<path fill="#efdcbe" opacity="1.00" d=" M 170.72 394.12 C 171.51 394.09 173.08 394.03 173.86 394.00 C 177.51 409.62 182.59 424.95 190.09 439.17 C 178.85 426.82 173.93 410.18 170.72 394.12 Z" />
<path fill="#efdcbe" opacity="1.00" d=" M 169.91 426.06 C 176.29 430.54 180.99 437.06 186.14 442.87 C 190.57 448.70 197.10 453.10 199.76 460.13 C 200.87 465.82 200.28 473.39 194.91 476.80 C 188.16 470.97 186.63 461.50 186.32 453.05 C 186.23 448.02 183.15 443.85 180.18 440.07 C 176.53 435.56 173.61 430.52 169.91 426.06 Z" />
<path fill="#efdcbe" opacity="1.00" d=" M 464.26 432.35 C 466.24 430.45 467.80 428.05 470.26 426.73 C 466.12 432.43 462.06 438.19 458.24 444.11 C 455.28 448.49 456.34 453.96 455.33 458.88 C 454.47 465.34 452.88 472.36 447.93 476.98 C 445.63 477.89 444.07 475.59 443.00 473.95 C 441.17 470.66 440.54 466.79 440.67 463.06 C 440.92 458.59 443.85 454.89 446.71 451.70 C 452.78 445.46 458.38 438.78 464.26 432.35 Z" />
<path fill="#efdcbe" opacity="1.00" d=" M 320.48 511.11 C 321.47 512.61 322.11 514.29 322.65 516.00 C 322.46 516.49 322.08 517.45 321.89 517.94 C 322.33 518.07 323.21 518.33 323.65 518.46 C 323.09 521.26 319.83 521.08 318.24 519.26 C 320.03 516.86 318.63 513.61 320.48 511.11 Z" />
<path fill="#efdcbe" opacity="1.00" d=" M 334.43 516.14 C 336.09 518.39 335.97 521.31 336.80 523.89 C 337.47 525.30 336.73 526.67 336.02 527.88 C 335.05 527.61 334.06 527.37 333.08 527.18 C 332.70 526.22 332.32 525.27 331.94 524.32 C 333.77 521.98 332.91 518.68 334.43 516.14 Z" />
<path fill="#efdcbe" opacity="1.00" d=" M 304.95 523.75 C 305.22 521.63 304.21 517.69 306.87 516.99 L 307.63 518.95 C 307.25 519.04 306.48 519.20 306.09 519.29 L 306.70 521.18 C 307.11 520.51 307.53 519.86 307.97 519.22 C 306.81 521.75 310.46 524.83 307.90 526.84 C 306.92 527.86 305.71 528.43 304.25 528.55 C 303.41 525.72 304.92 523.90 307.04 522.37 C 306.52 522.71 305.47 523.40 304.95 523.75 Z" />
<path fill="#efdcbe" opacity="1.00" d=" M 317.99 522.05 C 318.55 520.41 320.49 521.28 321.60 521.74 L 322.36 520.88 C 322.71 520.94 323.40 521.07 323.74 521.14 C 323.36 522.65 323.06 524.18 322.90 525.75 C 325.45 526.10 328.08 526.26 330.47 527.32 C 331.16 528.85 331.93 530.34 332.83 531.77 C 326.79 527.27 318.62 527.03 311.82 529.73 C 308.90 531.03 306.75 534.08 307.97 537.33 C 309.54 538.24 311.14 539.37 313.04 539.38 C 312.82 538.38 312.60 537.38 312.38 536.40 C 313.28 535.30 314.38 534.51 315.70 534.03 C 314.71 533.02 312.54 532.72 312.39 531.19 C 313.69 528.65 314.94 533.80 316.85 532.55 L 316.43 530.45 L 316.76 530.35 C 316.84 530.85 317.00 531.87 317.08 532.37 C 319.21 530.80 322.24 530.28 324.63 531.59 C 326.95 532.87 328.51 535.09 330.19 537.08 C 330.17 537.80 330.13 539.23 330.11 539.94 C 330.75 539.67 332.02 539.12 332.66 538.84 C 332.93 538.06 333.20 537.28 333.48 536.51 C 333.80 536.45 334.46 536.31 334.78 536.25 C 334.36 536.73 333.52 537.71 333.10 538.20 C 334.58 538.23 339.52 537.56 338.31 540.41 C 334.79 546.31 330.56 553.51 322.93 554.16 C 316.10 555.64 308.28 551.86 305.82 545.28 C 305.11 544.04 304.21 542.96 303.16 542.01 C 302.67 540.45 302.61 538.90 302.99 537.35 C 304.65 539.04 306.65 540.16 309.02 538.82 C 307.67 536.69 305.58 534.44 302.88 535.95 C 303.21 534.27 303.85 532.68 304.26 531.03 C 304.89 530.90 306.15 530.63 306.77 530.50 C 307.03 530.81 307.53 531.43 307.78 531.75 C 307.19 530.62 306.31 529.70 305.53 528.72 C 307.53 528.25 309.86 528.27 311.44 526.76 C 314.16 527.11 316.79 525.77 319.57 526.17 C 320.15 524.44 317.82 523.67 317.99 522.05 M 315.13 539.60 C 319.07 539.29 323.02 540.38 326.94 539.78 C 328.28 539.53 329.03 537.16 327.45 536.54 C 325.44 534.61 322.54 534.89 319.99 534.94 C 317.56 535.03 314.03 536.62 315.13 539.60 M 305.43 543.02 C 309.35 546.30 312.25 551.50 317.65 552.50 C 318.83 549.37 318.73 545.98 319.04 542.70 C 316.68 542.79 314.31 542.93 311.96 542.80 C 309.76 542.55 307.35 541.23 305.43 543.02 M 323.13 542.13 C 322.86 545.34 323.26 548.61 322.45 551.77 C 326.27 553.09 328.52 548.97 330.73 546.64 C 331.79 544.69 335.51 544.93 335.02 542.17 C 331.06 541.69 327.10 542.49 323.13 542.13 Z" />
<path fill="#efdcbe" opacity="1.00" d=" M 333.27 529.14 C 334.65 527.02 335.34 531.48 333.33 529.89 L 333.27 529.14 Z" />
<path fill="#efdcbe" opacity="1.00" d=" M 335.29 532.53 C 336.23 532.41 336.28 530.93 336.95 530.34 C 337.45 532.34 338.90 534.83 337.49 536.81 C 335.37 535.68 333.81 533.32 333.00 531.13 C 333.57 531.48 334.72 532.18 335.29 532.53 Z" />
</g>
</svg>
