<?xml version="1.0" encoding="UTF-8" ?>
<!DOCTYPE svg PUBLIC "-//W3C//DTD SVG 1.1//EN" "http://www.w3.org/Graphics/SVG/1.1/DTD/svg11.dtd">
<svg width="899pt" height="899pt" viewBox="0 0 899 899" version="1.1" xmlns="http://www.w3.org/2000/svg">
<g id="#1c1a1aff">
<path fill="#1c1a1a" opacity="1.00" d=" M 422.51 33.38 C 424.92 23.50 434.73 15.88 444.97 16.47 C 457.96 16.60 468.77 30.50 465.47 43.11 C 463.69 51.42 457.00 57.82 449.32 60.95 C 453.44 73.52 464.11 82.78 475.85 88.18 C 478.25 89.01 479.07 91.53 478.91 93.86 C 473.79 95.81 467.90 98.26 465.82 103.79 C 463.40 110.60 467.81 118.15 474.13 120.94 C 483.56 125.63 496.54 117.72 496.27 107.08 C 493.62 106.44 489.40 106.54 488.89 103.08 C 487.83 98.35 491.63 94.64 494.85 91.82 C 500.56 86.75 506.23 80.02 505.78 71.90 C 505.71 67.37 500.53 63.68 496.28 65.53 C 493.71 67.96 493.59 72.43 490.22 74.16 C 486.27 76.30 482.23 71.76 481.90 68.00 C 480.36 60.80 486.13 53.96 492.87 52.23 C 498.59 50.50 504.57 53.47 508.56 57.48 C 515.43 64.86 518.40 75.10 519.14 84.97 C 519.34 91.61 520.01 98.51 517.93 104.93 C 516.13 105.85 513.47 106.01 512.42 107.84 C 514.03 115.44 520.33 122.07 528.06 123.48 C 532.02 123.97 536.61 122.36 538.90 119.03 C 539.00 114.48 537.34 109.39 540.21 105.35 C 544.98 97.72 556.60 97.12 563.05 102.91 C 569.23 107.95 570.36 118.03 565.15 124.16 C 561.05 129.54 553.26 131.60 547.11 128.65 C 547.56 130.15 548.01 131.66 548.46 133.17 C 540.20 150.35 531.98 167.84 528.33 186.68 C 473.20 186.37 418.07 186.91 362.94 186.67 C 361.77 186.61 360.02 186.65 359.97 185.03 C 356.11 168.67 349.20 153.24 341.69 138.27 C 340.15 135.39 340.25 132.03 341.65 129.11 C 336.21 130.31 329.92 130.32 325.44 126.54 C 318.72 121.47 317.90 110.67 323.46 104.45 C 327.13 100.52 332.73 98.53 338.06 99.11 C 343.00 99.65 347.42 103.16 349.30 107.72 C 350.77 111.49 349.80 115.61 348.31 119.21 C 351.49 121.33 355.02 123.56 359.02 123.23 C 366.51 122.79 372.48 116.89 375.49 110.38 C 376.19 109.15 376.13 107.72 375.97 106.36 C 374.32 105.93 372.68 105.48 371.05 105.01 C 368.66 93.51 369.87 81.45 373.51 70.35 C 376.21 63.03 380.79 55.54 388.44 52.68 C 398.20 48.70 410.18 58.84 407.79 69.12 C 407.17 72.64 403.41 75.11 399.93 74.44 C 396.57 72.62 396.32 67.85 392.90 66.05 C 390.03 64.66 386.49 66.31 385.08 69.01 C 383.03 72.62 384.00 77.00 385.43 80.65 C 387.86 86.46 392.88 90.51 397.32 94.74 C 400.27 97.38 400.33 101.62 399.89 105.27 C 397.40 105.84 394.92 106.41 392.42 106.91 C 391.89 116.11 401.41 123.25 410.12 121.96 C 413.81 121.44 417.03 119.19 419.51 116.49 C 423.03 112.86 423.04 107.07 421.34 102.59 C 419.66 98.47 415.09 97.26 411.56 95.28 C 410.12 94.56 408.72 92.46 410.22 91.08 C 413.32 87.26 418.39 86.07 422.26 83.26 C 430.33 77.44 436.66 69.31 440.53 60.16 C 428.28 58.59 419.69 45.20 422.51 33.38 M 439.39 29.52 C 432.70 32.37 432.37 42.96 438.38 46.73 C 444.91 52.02 455.65 45.08 454.15 36.99 C 453.77 30.11 445.12 26.70 439.39 29.52 Z" />
<path fill="#1c1a1a" opacity="1.00" d=" M 441.40 33.52 C 444.92 31.75 451.52 34.18 449.64 38.95 C 449.67 44.16 442.05 45.54 439.69 41.27 C 437.85 38.76 439.09 35.25 441.40 33.52 Z" />
<path fill="#1c1a1a" opacity="1.00" d=" M 361.83 190.23 C 417.03 190.95 472.24 190.29 527.44 190.49 C 523.92 207.22 522.96 224.39 523.43 241.45 C 470.82 241.20 418.21 241.61 365.60 241.01 C 366.31 224.00 364.47 207.01 361.83 190.23 Z" />
<path fill="#1c1a1a" opacity="1.00" d=" M 341.55 245.26 C 349.03 246.00 356.53 245.03 364.02 245.15 C 378.00 245.16 391.97 245.68 405.95 245.43 C 449.70 245.28 493.45 245.56 537.20 245.60 C 559.90 271.53 572.92 305.01 577.03 339.01 C 579.52 359.91 579.38 381.07 582.78 401.88 C 585.83 421.76 591.14 441.79 602.20 458.84 C 612.94 475.43 629.48 487.06 641.16 502.89 C 649.55 514.33 650.99 529.04 651.39 542.79 C 652.47 543.14 653.57 543.51 654.68 543.88 C 657.30 527.59 661.08 511.40 661.65 494.84 C 663.75 497.88 664.22 501.60 664.75 505.17 C 665.79 513.35 665.94 521.61 666.24 529.85 C 672.27 528.92 680.07 530.85 684.33 525.32 C 694.09 509.73 695.85 490.92 698.10 473.09 C 698.56 464.71 699.41 456.32 699.28 447.92 C 699.56 446.33 697.80 445.83 696.72 445.32 C 681.88 439.48 666.10 434.68 653.68 424.27 C 640.98 413.28 634.51 394.51 640.30 378.37 C 645.72 363.66 659.00 354.35 669.48 343.47 C 676.42 336.72 684.61 329.36 685.20 319.00 C 686.47 311.38 682.73 302.66 675.19 299.90 C 669.40 297.51 663.19 299.89 657.98 302.57 C 659.96 293.28 671.66 289.22 679.70 293.22 C 688.35 297.23 693.76 306.63 693.84 316.04 C 693.76 323.51 691.34 330.90 687.07 337.03 C 682.85 343.38 676.80 348.14 671.61 353.64 C 663.48 362.05 655.60 371.18 651.36 382.24 C 646.40 395.67 652.69 411.98 665.11 418.96 C 676.07 425.06 688.14 428.70 699.62 433.66 C 699.26 425.81 699.87 417.94 699.04 410.12 C 695.97 410.02 692.59 410.75 689.79 409.18 C 688.57 407.28 689.00 404.76 688.69 402.60 C 683.46 401.99 678.20 402.24 672.95 402.19 C 671.37 402.42 670.52 400.88 669.68 399.88 C 674.45 397.88 679.66 398.51 684.68 398.67 C 682.25 392.16 680.93 384.62 684.03 378.10 C 688.61 369.33 699.01 363.53 708.91 365.53 C 716.72 367.02 723.23 372.82 726.42 380.01 C 736.33 377.58 747.44 378.36 756.03 384.25 C 761.81 387.93 765.99 394.09 766.90 400.92 C 768.50 409.79 763.41 419.74 754.69 422.67 C 750.26 424.10 745.14 424.60 740.76 422.83 C 744.94 421.25 749.57 420.13 752.72 416.72 C 759.37 410.15 758.34 398.43 751.94 392.03 C 746.04 384.97 736.33 383.09 727.57 383.04 C 727.86 390.54 724.42 397.34 721.37 403.96 C 724.68 403.22 729.53 402.45 731.11 406.38 C 724.88 407.43 718.74 408.86 712.53 409.97 C 712.46 418.98 712.18 428.03 713.07 437.01 C 713.35 438.13 712.94 440.06 714.50 440.38 C 719.65 442.11 724.51 444.54 729.25 447.19 C 726.64 441.83 723.59 436.61 722.21 430.76 C 726.59 434.12 729.16 439.15 732.79 443.23 C 745.41 457.76 751.28 477.07 752.32 496.05 C 753.59 515.67 749.57 535.52 741.26 553.31 C 736.75 562.29 729.44 569.79 720.64 574.64 C 712.23 579.45 703.18 585.02 699.50 594.49 C 712.06 593.12 723.90 588.43 735.29 583.22 C 729.03 589.60 720.65 593.32 712.43 596.51 C 701.25 601.22 689.02 602.67 676.97 602.45 C 671.56 602.51 665.99 601.36 660.70 602.73 C 654.61 606.78 650.02 612.73 646.51 619.07 C 649.31 621.60 652.90 624.41 656.95 623.19 C 664.16 621.56 668.53 615.00 671.67 608.83 C 671.60 617.12 666.12 625.34 657.95 627.56 C 652.92 629.16 647.65 627.76 642.90 625.91 C 640.50 636.37 639.92 647.39 635.28 657.23 C 630.59 668.14 621.48 676.10 613.48 684.54 C 609.13 688.77 605.71 694.05 600.32 697.11 C 604.69 687.67 611.58 679.61 615.42 669.90 C 607.93 666.59 604.97 658.29 604.02 650.74 C 592.65 660.89 581.18 671.12 567.98 678.87 C 569.14 677.13 570.55 675.58 572.11 674.19 C 580.01 666.96 586.93 658.73 593.12 650.01 C 597.65 643.35 602.52 636.92 607.81 630.84 C 615.68 621.40 624.94 613.12 631.81 602.86 C 638.47 593.23 643.73 582.65 647.52 571.59 C 650.34 563.49 651.92 555.05 654.32 546.84 C 652.85 546.43 651.38 546.02 649.92 545.63 C 646.59 570.90 634.84 594.84 617.35 613.32 C 610.65 620.29 604.33 627.62 597.37 634.34 C 585.47 646.78 575.03 660.67 561.74 671.74 C 558.94 673.99 556.21 676.39 552.95 677.96 C 566.25 664.10 578.97 649.55 589.50 633.44 C 599.71 618.10 609.37 602.24 616.06 585.01 C 625.27 563.21 626.70 538.22 619.41 515.66 C 618.85 513.77 617.86 512.04 616.35 510.77 C 617.51 515.82 618.80 520.87 619.09 526.07 C 619.99 549.26 615.17 572.53 605.81 593.73 C 591.10 627.00 567.44 655.27 542.25 681.11 C 543.41 681.78 544.64 682.39 545.72 683.22 C 547.70 687.89 547.32 693.13 547.84 698.10 C 534.25 698.83 520.64 698.49 507.04 698.56 C 477.67 698.82 448.30 698.77 418.93 698.78 C 393.44 698.70 367.95 698.96 342.47 698.56 C 342.64 692.21 342.51 685.87 342.64 679.53 C 337.71 678.80 332.23 679.04 328.03 675.94 C 303.73 656.29 286.69 629.22 274.21 600.89 C 265.86 581.54 260.28 560.96 258.06 539.99 C 257.27 532.71 256.90 525.30 258.17 518.06 C 259.39 512.67 263.56 508.70 265.77 503.76 C 269.43 495.31 275.22 487.48 275.94 478.03 C 277.43 467.62 273.85 457.42 273.96 447.05 C 274.14 437.94 278.64 428.26 287.19 424.24 C 294.20 420.46 303.48 421.03 309.41 426.58 C 303.94 425.58 298.11 424.62 292.77 426.71 C 285.31 429.68 279.86 436.95 279.05 444.93 C 278.30 452.40 280.65 459.69 281.19 467.09 C 281.48 469.46 281.21 472.03 282.48 474.18 C 288.82 460.31 296.84 446.36 309.87 437.78 C 316.95 432.99 325.41 429.35 334.13 430.30 C 343.60 431.32 351.22 439.68 352.59 448.91 C 353.59 455.72 350.53 462.89 345.03 466.99 C 337.00 473.25 324.20 473.77 316.73 466.34 C 313.06 462.83 313.51 457.40 313.27 452.79 C 310.00 456.39 311.39 461.51 312.59 465.65 C 315.37 474.00 322.62 479.80 329.97 484.06 C 339.47 489.79 350.55 492.08 361.44 493.38 C 356.17 495.30 351.84 498.97 347.75 502.70 C 333.47 516.00 324.89 535.39 325.35 554.97 C 325.44 567.12 327.60 579.99 334.76 590.09 C 333.67 584.57 330.99 579.51 329.99 573.97 C 323.71 542.41 340.60 507.98 369.21 493.36 C 375.59 501.34 383.53 507.88 390.26 515.52 C 374.69 525.41 360.83 538.35 351.01 554.05 C 346.54 561.49 342.51 569.48 340.80 578.04 C 341.96 580.99 344.23 583.31 346.29 585.67 C 353.02 593.11 361.02 599.69 370.47 603.32 C 372.59 604.18 374.91 603.57 377.07 603.17 C 386.87 600.98 396.50 597.92 405.61 593.68 C 409.49 591.91 413.03 589.45 417.04 587.96 C 407.88 594.97 398.67 602.05 388.40 607.38 C 375.37 614.39 361.18 618.74 347.75 624.84 C 344.46 626.46 340.98 627.84 338.08 630.13 C 337.09 641.64 337.58 654.49 345.11 663.94 C 350.10 670.49 358.04 673.51 365.39 676.56 C 366.02 664.98 367.48 653.20 372.46 642.59 C 377.65 631.43 386.90 623.00 395.67 614.66 C 412.04 599.35 429.18 584.87 445.11 569.09 C 465.11 589.13 484.74 609.55 505.38 628.94 C 495.09 643.59 484.03 657.71 472.15 671.11 C 469.86 673.72 467.25 676.15 465.84 679.40 C 467.75 679.11 469.51 678.25 470.80 676.80 C 483.57 663.87 495.76 650.33 506.74 635.83 C 527.29 608.53 543.59 577.88 553.39 545.09 C 560.52 521.68 564.86 497.45 566.55 473.05 C 567.93 445.94 567.35 418.61 563.23 391.75 C 561.65 394.50 562.53 397.89 562.59 400.90 C 563.73 408.54 563.52 416.29 563.70 423.99 C 563.89 472.07 557.35 520.71 539.60 565.62 C 531.71 586.13 520.73 605.26 508.95 623.75 C 504.91 620.56 501.57 616.62 497.86 613.07 C 484.56 600.07 471.26 587.07 457.70 574.35 C 454.85 571.76 451.88 569.29 449.39 566.34 C 473.45 544.21 496.07 519.94 512.24 491.32 C 534.11 453.19 545.73 409.66 548.37 365.92 C 548.53 358.39 548.90 350.72 547.64 343.28 C 545.11 386.50 535.50 429.58 516.76 468.74 C 503.48 497.36 484.28 522.84 462.55 545.57 C 456.80 551.56 450.83 557.34 444.95 563.21 C 440.74 560.47 437.68 556.41 434.21 552.86 C 422.53 541.52 411.06 529.97 399.47 518.54 C 392.42 511.58 385.77 504.21 378.40 497.58 C 376.45 495.79 374.70 493.81 372.97 491.82 C 389.15 481.99 404.21 469.87 415.53 454.57 C 422.62 445.09 428.06 434.32 430.79 422.76 C 434.06 409.58 434.64 395.87 434.27 382.35 C 422.68 383.53 410.89 385.79 400.61 391.55 C 394.18 394.93 388.46 399.45 382.36 403.34 C 379.21 405.45 375.40 404.03 371.94 403.93 C 365.45 403.44 358.82 405.03 352.42 403.53 C 347.83 400.87 347.56 394.75 347.56 390.03 C 352.11 387.64 357.24 386.51 361.58 383.69 C 367.29 380.14 371.88 375.12 376.14 369.98 C 377.10 370.09 379.00 370.31 379.96 370.42 C 379.05 369.45 378.06 368.59 376.99 367.84 C 367.70 362.66 357.34 359.30 346.68 358.72 C 347.03 351.48 340.16 346.46 333.48 346.14 C 335.39 349.50 340.91 350.39 340.45 355.01 C 340.37 360.46 335.03 367.99 328.99 364.87 C 323.52 359.63 322.50 351.58 319.67 344.85 C 328.16 339.40 337.27 334.70 344.53 327.57 C 357.15 315.72 365.08 299.02 366.29 281.75 C 390.37 284.19 415.51 282.82 437.94 273.00 C 445.90 269.33 453.77 265.02 460.16 258.94 C 456.70 259.96 453.61 261.87 450.37 263.40 C 440.70 268.11 430.76 272.57 420.16 274.69 C 403.02 278.13 385.23 279.09 367.95 276.09 C 369.00 271.14 369.86 266.16 370.54 261.15 C 382.57 261.48 394.74 260.15 406.15 256.19 C 408.17 255.51 410.14 254.52 411.42 252.74 C 408.27 253.23 405.32 254.47 402.25 255.29 C 390.81 258.41 378.78 258.90 367.01 257.95 C 357.59 256.63 347.06 253.67 341.55 245.26 M 469.45 259.44 C 474.29 260.58 479.32 261.03 483.96 262.96 C 497.63 268.12 507.87 280.57 511.59 294.56 C 515.12 307.10 513.70 320.70 508.65 332.62 C 503.65 345.18 493.82 355.17 482.93 362.85 C 469.03 372.56 452.72 378.19 436.21 381.52 C 435.96 382.08 435.46 383.21 435.21 383.77 C 460.32 383.33 486.19 373.63 502.51 353.97 C 504.49 383.05 497.58 413.02 481.40 437.42 C 478.91 441.30 475.44 444.53 473.59 448.80 C 479.22 444.64 483.01 438.62 487.09 433.05 C 503.87 408.66 509.69 378.10 507.78 348.92 C 507.18 345.30 509.89 342.53 511.44 339.57 C 519.37 325.01 521.38 307.21 516.38 291.36 C 512.40 278.68 503.01 267.61 490.63 262.51 C 483.92 260.05 476.60 258.43 469.45 259.44 M 401.62 304.66 C 400.69 305.44 400.19 306.52 399.82 307.64 C 407.22 309.80 414.15 313.91 422.01 314.17 C 426.74 314.34 431.02 312.05 435.51 310.93 C 432.84 314.44 429.45 317.29 426.36 320.40 C 420.40 326.50 409.72 322.44 404.33 329.43 C 397.94 337.92 393.44 348.43 393.94 359.21 C 397.29 349.98 400.45 339.86 408.62 333.65 C 413.72 329.14 421.66 331.31 426.69 326.74 C 432.01 321.05 436.59 314.59 442.75 309.72 C 445.29 307.61 448.35 306.27 451.02 304.35 C 443.69 305.07 437.24 309.16 429.97 310.14 C 422.98 311.34 415.46 310.32 409.52 306.28 C 411.93 302.95 414.63 299.19 418.89 298.21 C 422.67 297.60 426.42 298.79 430.11 299.47 C 431.03 298.74 431.95 298.00 432.88 297.28 C 426.50 296.96 420.89 293.75 415.13 291.36 C 410.07 295.22 406.17 300.28 401.62 304.66 M 440.00 297.88 C 437.14 297.88 434.22 298.08 431.61 299.37 C 434.24 300.62 437.21 299.94 439.99 299.78 C 443.27 299.34 446.82 298.70 449.32 296.34 C 446.21 296.85 443.18 297.92 440.00 297.88 M 327.65 442.10 C 331.06 444.45 335.67 445.20 337.97 448.96 C 341.42 453.94 338.23 460.69 333.62 463.68 C 330.13 465.98 325.77 465.24 321.87 464.90 C 325.92 467.66 331.24 468.32 335.91 466.93 C 340.70 465.24 344.31 460.82 345.48 455.93 C 346.74 450.80 343.39 445.32 338.61 443.43 C 335.15 442.01 331.33 441.95 327.65 442.10 M 308.46 453.46 C 290.61 475.27 281.59 503.15 279.19 530.96 C 275.45 569.70 287.16 609.51 310.57 640.52 C 311.34 641.32 312.19 642.04 313.12 642.69 C 311.74 639.89 309.92 637.36 308.33 634.69 C 288.36 601.44 280.11 561.24 285.68 522.83 C 288.50 503.30 295.88 484.11 308.57 468.84 C 308.27 464.86 307.81 460.75 308.99 456.87 C 309.97 453.36 312.51 450.56 315.18 448.20 C 317.86 445.81 321.69 445.42 324.40 443.07 C 317.80 443.93 312.20 448.12 308.46 453.46 M 321.74 452.11 C 322.57 453.94 323.19 455.94 324.46 457.56 C 326.31 459.65 329.33 460.19 332.00 459.80 C 335.34 457.33 337.20 452.08 334.62 448.45 C 330.26 445.34 324.30 447.87 321.74 452.11 M 712.92 453.15 C 712.17 469.87 711.19 486.76 706.83 503.00 C 704.29 512.24 701.09 521.51 695.28 529.26 C 704.10 529.44 713.31 529.93 721.69 526.68 C 725.82 525.15 729.13 521.91 730.93 517.91 C 737.08 505.63 737.58 491.21 734.87 477.94 C 732.44 466.58 723.31 457.69 712.92 453.15 M 301.91 500.01 C 296.10 515.31 295.58 532.06 297.41 548.16 C 300.04 569.28 307.67 589.76 319.51 607.44 C 321.60 610.25 323.51 613.36 326.49 615.34 C 305.54 584.55 297.45 545.75 302.89 509.03 C 304.23 501.45 306.10 493.77 310.12 487.12 C 311.00 485.86 310.66 484.27 310.73 482.85 C 306.80 487.98 304.25 494.02 301.91 500.01 M 616.87 490.74 C 621.24 498.98 624.75 507.79 625.79 517.13 C 626.97 528.80 628.08 540.66 626.12 552.31 C 628.94 549.76 631.04 546.16 634.73 544.75 C 638.06 543.78 641.56 543.61 644.94 542.82 C 642.48 541.44 639.52 540.55 637.98 538.01 C 635.28 533.86 635.37 528.65 633.96 524.03 C 630.77 511.97 626.17 499.44 616.87 490.74 M 572.54 494.81 C 572.67 500.23 573.19 505.63 573.25 511.06 C 574.46 554.50 565.16 598.64 543.78 636.68 C 536.47 649.87 527.27 661.85 518.75 674.24 C 521.56 673.06 524.16 671.42 526.49 669.46 C 539.15 658.74 548.66 644.77 555.87 629.93 C 564.38 612.08 569.74 592.87 573.32 573.46 C 576.99 553.53 577.07 533.15 575.88 512.98 C 575.30 506.86 574.78 500.59 572.54 494.81 M 742.77 521.92 C 737.53 537.27 726.57 550.16 713.55 559.59 C 705.71 565.05 697.35 569.81 690.10 576.07 C 684.81 581.39 680.86 587.87 675.65 593.26 C 679.74 593.63 683.84 593.77 687.93 594.23 C 688.06 589.99 687.71 585.49 689.63 581.57 C 692.18 577.48 696.44 574.93 700.37 572.34 C 709.44 566.57 719.01 561.33 726.72 553.71 C 738.89 542.50 745.07 526.04 746.52 509.84 C 744.60 513.63 744.23 517.96 742.77 521.92 M 693.02 535.88 C 691.31 535.68 690.20 537.03 689.08 538.06 C 682.12 544.81 674.18 550.45 666.80 556.72 C 664.29 558.85 663.33 562.10 662.30 565.10 C 660.42 571.13 656.96 576.67 656.32 583.07 C 657.97 583.22 659.75 582.93 661.34 583.56 C 664.03 585.48 663.51 589.11 663.93 591.97 C 667.56 589.06 669.45 584.73 672.04 580.99 C 685.88 561.64 708.17 550.58 722.43 531.64 C 713.28 536.12 702.92 535.64 693.02 535.88 M 666.11 535.85 C 665.91 538.24 665.74 540.64 665.61 543.05 C 669.21 541.13 672.83 539.08 675.61 536.04 C 672.47 535.36 669.27 535.56 666.11 535.85 M 646.25 598.30 C 637.71 607.43 629.75 617.09 621.05 626.07 C 618.76 628.47 616.59 631.02 614.82 633.84 C 610.18 640.83 611.18 650.17 614.57 657.46 C 615.97 659.97 618.18 663.36 621.55 662.54 C 624.20 660.89 625.80 657.97 627.34 655.33 C 632.17 645.79 632.64 634.87 633.59 624.43 C 634.18 618.56 638.29 614.06 641.31 609.28 C 644.93 603.68 649.16 598.50 652.61 592.80 C 649.95 593.93 648.19 596.28 646.25 598.30 Z" />
<path fill="#1c1a1a" opacity="1.00" d=" M 203.24 299.36 C 207.04 294.70 212.90 291.76 218.92 291.66 C 225.33 291.78 231.20 296.35 233.10 302.44 C 228.82 301.06 224.64 298.73 220.01 299.07 C 213.45 299.40 207.69 304.67 206.30 311.00 C 204.80 318.70 207.03 326.95 212.09 332.93 C 224.35 347.25 241.18 357.73 250.18 374.72 C 259.25 392.70 251.07 415.91 235.01 427.05 C 221.81 436.13 206.33 440.87 191.71 447.10 C 192.28 463.50 193.19 479.97 196.32 496.11 C 198.25 505.28 200.44 514.61 205.22 522.78 C 206.66 525.28 208.52 527.88 211.48 528.66 C 215.92 529.84 220.59 529.33 225.12 530.00 C 224.61 519.31 224.73 508.48 226.94 497.97 C 227.10 496.69 227.65 495.54 228.48 494.56 C 230.63 510.73 232.53 526.98 236.25 542.89 C 237.67 542.99 239.09 543.10 240.51 543.22 C 240.20 528.13 240.08 512.82 243.80 498.08 C 246.64 487.34 251.14 476.94 257.85 468.03 C 251.42 490.38 250.28 513.95 252.53 537.01 C 254.39 557.74 259.77 578.06 267.67 597.29 C 274.05 613.17 282.50 628.08 291.15 642.81 C 295.87 650.61 300.86 658.28 306.65 665.32 C 310.46 669.94 315.22 673.69 318.74 678.56 C 306.27 672.26 296.42 662.17 286.24 652.84 C 285.34 659.98 281.34 666.74 274.87 670.15 C 279.06 679.69 286.22 687.58 290.28 697.18 C 286.62 695.12 284.03 691.78 281.08 688.89 C 272.16 679.79 262.28 671.13 256.42 659.60 C 251.10 649.22 249.64 637.48 248.39 626.05 C 242.42 628.10 235.47 629.49 229.66 626.22 C 223.16 623.10 220.06 615.89 218.86 609.17 C 221.85 613.13 223.71 618.15 228.17 620.79 C 232.57 623.90 240.14 624.24 243.09 619.03 C 243.67 615.70 240.84 613.31 238.75 611.22 C 235.61 608.39 233.02 604.89 229.36 602.70 C 227.16 601.32 224.48 601.75 222.03 601.90 C 204.69 603.45 186.58 601.86 170.68 594.30 C 164.63 591.22 158.50 587.90 153.82 582.87 C 165.05 587.56 176.52 592.75 188.90 593.10 C 186.65 587.44 182.31 582.87 177.13 579.76 C 171.20 576.21 165.14 572.77 159.89 568.24 C 150.16 560.14 145.27 547.89 141.90 536.03 C 135.90 513.42 135.87 488.89 143.94 466.78 C 146.68 459.43 150.44 452.46 155.24 446.25 C 159.23 440.92 162.76 435.14 167.85 430.75 C 166.32 437.09 162.76 442.59 159.75 448.28 C 165.54 444.95 171.47 441.79 177.85 439.76 C 179.21 429.99 179.17 420.05 178.07 410.26 C 171.52 410.28 165.91 405.53 159.22 406.77 C 161.26 402.39 166.51 402.33 170.47 403.83 C 165.73 397.98 164.08 390.41 163.93 383.04 C 155.28 383.21 145.73 384.87 139.63 391.58 C 133.67 397.56 131.55 408.07 136.89 415.10 C 140.08 419.39 145.53 420.49 150.07 422.72 C 145.30 423.86 140.14 423.91 135.45 422.37 C 128.19 419.53 123.93 411.60 124.04 404.02 C 123.91 396.28 128.46 389.08 134.67 384.73 C 143.12 378.86 154.29 377.32 164.12 380.22 C 166.23 377.31 168.00 374.11 170.61 371.58 C 176.68 365.71 186.22 363.69 194.07 366.95 C 201.30 369.55 206.87 376.25 207.90 383.89 C 208.65 388.82 207.53 393.77 206.18 398.50 C 211.10 398.69 216.49 397.63 221.03 399.89 C 215.55 403.32 208.63 400.51 202.85 402.84 C 201.35 404.33 202.30 406.58 202.98 408.24 C 199.27 409.31 195.44 409.89 191.58 409.85 C 191.43 417.89 191.54 425.93 191.50 433.98 C 199.83 431.08 207.86 427.41 216.04 424.11 C 223.77 420.85 231.80 416.88 236.69 409.77 C 243.16 400.14 243.78 386.90 238.22 376.72 C 231.26 363.04 218.92 353.45 208.73 342.35 C 202.22 335.54 197.88 326.46 197.56 316.98 C 197.47 310.72 199.14 304.21 203.24 299.36 M 156.69 474.71 C 151.89 488.77 152.11 504.79 158.45 518.34 C 161.05 524.06 166.73 528.28 173.00 528.98 C 180.11 529.78 187.35 530.40 194.46 529.18 C 190.90 522.02 187.00 514.97 184.76 507.26 C 179.73 490.99 179.08 473.82 178.26 456.94 C 178.27 455.71 177.81 454.56 177.33 453.47 C 168.72 458.44 160.21 465.05 156.69 474.71 M 143.36 511.69 C 145.19 525.00 149.33 538.51 158.02 549.02 C 168.68 562.27 185.58 567.81 197.79 579.25 C 201.76 582.95 202.02 588.75 202.32 593.80 C 206.26 593.58 210.21 593.52 214.16 593.39 C 211.64 589.75 208.51 586.59 205.83 583.08 C 194.56 569.65 177.60 562.99 165.16 550.87 C 156.58 542.08 149.65 531.41 146.38 519.50 C 145.53 516.84 145.12 513.94 143.36 511.69 M 167.97 532.96 C 172.79 537.81 176.84 543.42 182.20 547.73 C 195.35 558.85 209.74 568.86 220.32 582.65 C 222.82 585.96 225.17 589.41 228.19 592.28 C 227.87 589.67 226.34 586.65 228.20 584.28 C 229.81 581.87 232.96 583.02 235.29 583.25 C 233.51 576.53 230.20 570.38 228.17 563.75 C 227.20 560.69 226.16 557.40 223.50 555.36 C 215.25 548.59 206.46 542.50 198.23 535.70 C 192.45 535.56 186.67 536.08 180.91 535.69 C 176.47 535.44 172.32 533.69 167.97 532.96 M 236.84 547.12 C 241.33 569.11 247.83 591.84 263.05 608.98 C 262.51 605.90 260.76 603.27 259.50 600.47 C 251.56 583.39 245.75 565.36 241.57 547.01 C 239.99 547.04 238.41 547.08 236.84 547.12 M 236.64 592.01 C 239.06 596.53 242.50 600.40 245.25 604.71 C 250.34 612.32 258.18 619.16 258.56 628.95 C 258.88 640.88 261.29 653.81 270.39 662.33 C 278.00 657.76 279.02 647.58 277.63 639.63 C 275.68 632.72 270.30 627.56 265.48 622.53 C 255.59 612.64 248.16 600.22 236.64 592.01 Z" />
<path fill="#1c1a1a" opacity="1.00" d=" M 159.82 376.58 C 162.71 362.69 178.66 354.58 191.95 357.69 C 202.84 359.94 212.52 369.05 213.86 380.31 C 210.79 373.79 206.36 367.51 199.67 364.33 C 188.33 358.29 173.04 360.79 164.55 370.53 C 162.82 372.46 162.55 375.64 159.82 376.58 Z" />
<path fill="#1c1a1a" opacity="1.00" d=" M 676.82 379.16 C 679.11 365.73 692.93 357.01 705.95 357.12 C 717.49 356.90 728.39 365.21 731.67 376.20 C 728.93 374.70 727.56 371.75 725.44 369.60 C 718.76 362.77 708.59 359.56 699.20 361.27 C 692.73 362.74 686.58 366.10 682.23 371.16 C 680.05 373.57 679.03 376.78 676.82 379.16 Z" />
<path fill="#1c1a1a" opacity="1.00" d=" M 342.74 365.77 C 352.64 363.86 362.68 366.39 372.21 369.00 C 367.67 373.45 362.02 376.65 356.33 379.39 C 352.73 380.67 348.28 382.67 344.80 380.12 C 341.97 378.08 338.68 376.37 336.50 373.62 C 335.53 369.89 339.47 366.64 342.74 365.77 Z" />
<path fill="#1c1a1a" opacity="1.00" d=" M 352.08 441.12 C 356.30 442.41 360.81 443.22 364.45 445.90 C 360.59 445.89 356.89 444.61 353.04 444.52 C 352.71 443.38 352.40 442.25 352.08 441.12 Z" />
<path fill="#1c1a1a" opacity="1.00" d=" M 213.67 466.08 C 214.73 458.18 221.70 452.33 229.08 450.38 C 234.66 448.99 240.49 451.57 244.30 455.64 C 241.21 454.94 238.28 453.45 235.05 453.50 C 228.17 453.26 221.85 458.17 219.18 464.29 C 215.50 474.20 222.50 484.80 218.51 494.64 C 215.87 499.58 213.44 504.78 209.58 508.92 C 208.88 502.08 214.30 496.76 214.65 490.12 C 215.34 482.07 212.16 474.12 213.67 466.08 Z" />
<path fill="#1c1a1a" opacity="1.00" d=" M 646.50 456.41 C 649.99 452.72 654.83 450.07 660.04 450.42 C 668.66 450.50 676.26 457.61 677.59 466.01 C 678.75 473.01 676.92 479.98 676.17 486.92 C 675.22 495.12 682.21 501.68 681.47 509.89 C 678.93 507.73 677.91 504.49 676.24 501.72 C 673.99 497.81 671.48 493.77 671.25 489.14 C 671.08 482.02 673.49 475.09 673.15 467.97 C 672.28 462.59 668.49 457.85 663.72 455.33 C 659.82 453.17 655.11 453.72 651.04 455.05 C 649.50 455.44 648.15 456.73 646.50 456.41 Z" />
<path fill="#1c1a1a" opacity="1.00" d=" M 164.92 629.95 C 166.47 627.59 167.32 624.85 168.41 622.26 C 169.58 627.57 173.13 632.72 178.76 633.83 C 173.98 635.60 169.63 639.08 168.44 644.26 C 167.25 641.69 166.16 638.89 163.89 637.05 C 161.76 635.37 158.75 635.49 156.68 633.72 C 159.58 632.93 162.93 632.47 164.92 629.95 Z" />
<path fill="#1c1a1a" opacity="1.00" d=" M 722.79 622.80 C 724.18 624.45 724.62 626.61 725.66 628.47 C 727.61 631.43 731.08 632.71 734.13 634.23 C 731.77 635.07 729.15 635.59 727.27 637.35 C 725.44 639.42 724.23 641.94 722.77 644.27 C 722.10 642.33 721.82 640.17 720.47 638.56 C 718.38 635.82 714.78 635.24 711.85 633.79 C 717.53 633.00 721.78 628.32 722.79 622.80 Z" />
<path fill="#1c1a1a" opacity="1.00" d=" M 230.65 702.83 C 284.75 702.55 338.84 702.63 392.93 702.77 C 448.31 702.62 503.68 702.90 559.05 702.77 C 592.63 702.71 626.21 702.46 659.78 702.74 C 659.44 727.14 659.88 751.54 659.59 775.94 C 642.07 776.34 624.54 776.01 607.02 776.03 C 481.54 776.03 356.07 776.04 230.59 776.03 C 230.57 751.63 230.47 727.23 230.65 702.83 M 444.27 709.77 C 443.16 713.53 443.54 717.63 441.77 721.21 C 444.09 723.66 448.87 723.65 449.73 719.80 C 449.12 719.63 447.91 719.28 447.30 719.10 C 448.53 715.89 447.33 711.47 444.27 709.77 M 464.09 716.24 C 462.76 720.16 462.66 724.41 460.86 728.17 C 461.31 729.45 461.77 730.73 462.24 732.02 C 463.80 732.37 465.36 732.73 466.92 733.10 C 467.61 731.19 468.50 729.17 467.74 727.15 C 466.69 723.48 466.67 719.28 464.09 716.24 M 423.35 727.05 C 422.57 729.32 421.81 731.62 422.09 734.07 C 424.74 733.69 427.78 732.53 428.80 729.84 C 428.97 727.26 427.77 724.82 427.30 722.33 C 426.68 722.35 425.44 722.41 424.82 722.43 C 426.57 721.12 427.49 719.35 426.00 717.34 C 422.48 719.37 423.59 723.70 423.35 727.05 M 441.73 723.75 C 440.78 726.17 443.13 728.14 443.99 730.20 C 440.10 730.48 436.25 731.09 432.37 731.47 C 429.81 732.98 426.89 733.62 423.99 734.03 C 424.47 734.63 425.44 735.84 425.93 736.44 C 424.72 736.69 423.53 736.94 422.34 737.21 C 421.68 739.45 421.03 741.70 420.37 743.95 C 423.09 742.97 425.56 744.19 427.53 746.02 C 427.21 743.76 427.03 741.27 428.55 739.39 C 431.09 735.54 435.90 734.44 440.13 733.64 C 447.82 732.20 455.93 734.11 462.40 738.43 C 464.14 741.26 465.85 744.36 469.10 745.72 C 469.99 742.42 469.17 739.05 467.65 736.09 C 467.24 736.88 466.43 738.46 466.02 739.25 C 465.41 739.02 464.20 738.54 463.59 738.31 C 465.19 736.76 465.25 733.43 462.35 733.72 C 462.31 734.64 462.22 736.50 462.18 737.42 C 460.76 735.82 459.89 733.90 458.82 732.10 C 455.65 730.42 451.90 730.43 448.42 729.89 C 448.79 727.67 449.17 725.46 449.57 723.27 C 446.97 723.70 444.33 723.43 441.73 723.75 M 433.87 736.78 C 432.83 739.17 436.43 740.21 437.92 741.42 C 436.33 742.31 434.85 743.37 433.48 744.57 C 433.74 745.66 434.25 747.84 434.51 748.93 C 432.28 748.40 430.15 747.54 428.34 746.15 C 428.34 746.74 428.36 747.92 428.37 748.51 C 425.35 749.69 422.69 747.62 420.36 745.99 C 420.46 748.43 419.59 751.43 421.58 753.36 C 423.79 755.65 425.03 758.61 426.70 761.29 C 433.93 771.58 450.42 772.87 459.55 764.47 C 464.00 760.08 467.83 754.82 470.22 749.05 C 468.89 746.16 464.90 747.58 462.41 746.65 C 461.78 748.44 459.97 748.76 458.37 749.17 C 458.44 748.33 458.59 746.66 458.66 745.82 C 455.99 742.46 453.30 738.54 448.99 737.23 C 445.41 736.16 441.84 737.78 438.89 739.71 C 437.24 738.82 435.96 735.74 433.87 736.78 Z" />
<path fill="#1c1a1a" opacity="1.00" d=" M 216.36 724.76 C 218.32 722.80 220.57 721.17 223.13 720.12 C 223.34 731.70 223.18 743.28 223.24 754.87 C 220.87 752.82 217.46 751.23 216.58 748.00 C 216.08 740.27 216.90 732.50 216.36 724.76 Z" />
<path fill="#1c1a1a" opacity="1.00" d=" M 667.86 720.11 C 669.46 721.42 672.10 722.44 671.95 724.93 C 672.22 732.66 671.74 740.41 672.44 748.13 C 672.79 750.96 669.46 752.20 667.87 754.00 C 667.56 742.71 667.01 731.39 667.86 720.11 Z" />
<path fill="#1c1a1a" opacity="1.00" d=" M 675.07 726.20 C 698.46 736.97 724.80 736.18 749.95 736.44 C 735.55 736.75 721.12 737.03 706.81 738.72 C 695.85 740.03 684.73 742.31 675.08 747.92 C 676.19 740.72 675.99 733.40 675.07 726.20 Z" />
<path fill="#1c1a1a" opacity="1.00" d=" M 141.99 736.54 C 166.63 736.29 192.09 735.81 215.16 726.08 C 214.71 733.25 214.31 740.46 214.82 747.64 C 209.95 745.05 204.67 743.44 199.40 741.89 C 199.49 738.92 199.56 735.95 199.53 732.99 C 196.11 733.91 198.61 738.79 198.19 741.37 C 179.68 737.83 160.82 736.49 141.99 736.54 Z" />
<path fill="#1c1a1a" opacity="1.00" d=" M 437.31 749.01 C 436.95 745.65 439.93 743.38 442.97 743.03 C 446.98 742.55 451.67 742.34 454.87 745.25 C 456.94 746.55 455.06 749.78 452.92 749.48 C 447.71 749.88 442.52 748.88 437.31 749.01 Z" />
<path fill="#1c1a1a" opacity="1.00" d=" M 424.21 753.70 C 425.74 753.14 427.34 752.50 429.00 753.03 C 433.55 754.05 438.22 753.90 442.84 753.64 C 442.60 758.18 442.27 762.74 441.03 767.14 C 433.70 765.23 429.42 758.60 424.21 753.70 Z" />
<path fill="#1c1a1a" opacity="1.00" d=" M 448.73 752.91 C 454.31 753.10 459.88 752.40 465.45 752.87 C 464.77 756.23 460.87 756.52 459.01 758.93 C 456.07 762.25 453.16 767.12 447.99 766.30 C 448.60 761.86 448.56 757.37 448.73 752.91 Z" />
<path fill="#1c1a1a" opacity="1.00" d=" M 343.25 779.39 C 345.82 779.80 348.41 780.09 351.02 780.14 C 415.52 780.39 480.02 779.99 544.52 780.23 C 520.41 802.92 496.20 825.50 471.99 848.08 C 462.62 856.68 453.51 865.56 443.97 873.97 C 434.82 864.15 424.47 855.53 414.87 846.17 C 390.96 823.94 367.12 801.65 343.25 779.39 Z" />
</g>
</svg>
