<?xml version="1.0" encoding="UTF-8" ?>
<!DOCTYPE svg PUBLIC "-//W3C//DTD SVG 1.1//EN" "http://www.w3.org/Graphics/SVG/1.1/DTD/svg11.dtd">
<svg width="2663pt" height="429pt" viewBox="0 0 2663 429" version="1.1" xmlns="http://www.w3.org/2000/svg">
<g id="#5e3b31ff">
<path fill="#5e3b31" opacity="1.00" d=" M 141.25 0.00 L 2467.87 0.00 C 2475.94 7.09 2484.76 13.26 2493.22 19.88 C 2549.77 63.31 2606.16 106.94 2663.00 149.98 L 2663.00 162.38 C 2572.61 162.54 2482.21 162.31 2391.82 162.58 C 2399.37 170.87 2407.76 178.37 2415.72 186.28 C 2424.73 194.94 2433.65 203.69 2442.55 212.45 C 2444.57 214.40 2446.83 216.68 2449.93 216.36 C 2520.95 216.34 2591.98 216.31 2663.00 216.28 L 2663.00 280.60 C 2618.33 280.45 2573.66 280.60 2529.00 280.53 C 2524.17 280.45 2519.26 280.25 2514.60 281.69 C 2518.03 286.46 2522.87 289.88 2526.93 294.06 C 2535.12 302.21 2543.24 310.44 2551.84 318.17 C 2560.54 327.13 2570.13 335.17 2578.71 344.26 C 2580.44 345.88 2582.27 347.93 2584.92 347.70 C 2610.94 347.79 2636.97 347.82 2663.00 347.77 L 2663.00 429.00 L 0.00 429.00 L 0.00 427.38 C 10.59 417.85 20.18 407.27 30.80 397.77 C 45.02 384.02 58.99 370.01 73.02 356.06 C 74.57 354.59 75.37 352.59 76.15 350.67 C 50.77 350.17 25.38 350.57 0.00 350.47 L 0.00 278.42 C 47.33 278.57 94.66 278.42 142.00 278.51 C 145.30 278.48 148.64 278.74 151.93 278.23 C 155.23 276.63 157.42 273.50 160.07 271.07 C 178.23 253.66 196.33 236.19 214.10 218.40 C 142.73 218.46 71.37 218.42 0.00 218.42 L 0.00 160.28 C 90.03 160.33 180.05 160.33 270.08 160.37 C 272.06 160.42 274.12 159.99 275.55 158.52 C 287.30 147.62 298.66 136.32 309.97 124.97 C 313.73 121.25 317.61 117.65 321.01 113.58 C 315.46 112.04 309.68 112.58 304.00 112.55 C 202.67 112.56 101.33 112.53 0.00 112.67 L 0.00 104.68 C 38.55 76.38 76.98 47.90 115.58 19.67 C 124.06 13.02 133.38 7.41 141.25 0.00 M 435.57 5.58 C 427.89 13.40 419.71 20.75 412.77 29.26 C 414.92 30.67 417.50 30.79 419.99 30.71 C 518.04 30.64 616.08 30.86 714.13 30.60 C 720.01 23.18 724.85 15.02 730.49 7.42 C 731.63 5.87 732.37 4.07 733.05 2.27 C 730.73 1.83 728.39 1.58 726.04 1.60 C 631.69 1.63 537.33 1.60 442.98 1.62 C 439.87 1.21 437.60 3.63 435.57 5.58 M 1031.60 3.52 C 1029.63 7.12 1028.79 11.20 1027.41 15.05 C 1025.78 20.46 1023.15 25.61 1022.49 31.28 C 1116.32 31.49 1210.16 31.31 1304.00 31.38 C 1312.67 31.14 1321.41 31.86 1330.04 31.04 C 1330.85 22.44 1330.19 13.73 1330.41 5.09 C 1330.82 2.17 1327.21 1.45 1325.02 1.61 C 1229.01 1.61 1133.00 1.61 1036.99 1.62 C 1035.06 1.61 1032.68 1.62 1031.60 3.52 M 1630.25 2.18 C 1630.43 8.73 1633.56 14.61 1635.52 20.73 C 1636.76 24.00 1637.46 27.57 1639.48 30.49 C 1640.22 31.63 1641.78 31.24 1642.96 31.39 C 1743.21 31.28 1843.46 31.51 1943.71 31.29 C 1942.98 29.14 1942.01 27.06 1940.69 25.22 C 1936.17 18.71 1931.80 12.11 1927.27 5.63 C 1925.79 3.52 1923.77 1.25 1920.93 1.63 C 1827.62 1.58 1734.31 1.63 1641.00 1.61 C 1637.40 1.58 1633.79 1.51 1630.25 2.18 M 2227.10 2.43 C 2233.93 9.77 2241.58 16.31 2248.41 23.67 C 2250.73 26.34 2254.29 28.62 2254.01 32.62 C 2152.49 32.90 2050.97 32.62 1949.45 32.77 C 1949.28 36.76 1952.58 39.42 1954.61 42.47 C 1958.57 48.18 1962.41 53.98 1966.50 59.61 C 1968.06 61.72 1969.39 64.03 1970.11 66.59 C 1865.06 66.77 1760.01 66.63 1654.96 66.67 C 1653.79 66.74 1652.51 66.61 1651.70 67.56 C 1651.92 70.56 1653.36 73.31 1654.24 76.15 C 1657.44 86.05 1661.42 95.68 1664.61 105.59 C 1665.54 107.55 1665.93 110.60 1668.52 111.03 C 1671.98 111.47 1675.50 111.14 1679.00 111.21 C 1784.01 111.23 1889.02 111.18 1994.03 111.25 C 1995.15 111.12 1996.60 111.38 1997.53 110.49 C 1997.59 108.32 1996.17 106.56 1995.10 104.82 C 1988.73 95.51 1982.28 86.25 1976.03 76.87 C 1973.73 73.19 1970.10 69.99 1969.97 65.36 C 2070.98 65.25 2171.99 65.36 2273.00 65.32 C 2277.67 65.23 2282.42 65.77 2287.02 64.68 C 2284.56 60.08 2280.17 57.06 2276.72 53.27 C 2270.85 47.03 2263.60 42.21 2258.10 35.62 C 2256.79 34.71 2258.22 33.38 2258.57 32.39 C 2257.44 32.11 2256.35 31.81 2255.29 31.48 C 2331.52 31.15 2407.77 31.44 2484.00 31.35 C 2489.91 31.23 2495.95 31.94 2501.73 30.25 C 2492.05 21.47 2481.06 14.29 2471.00 5.98 C 2468.39 3.82 2465.51 1.37 2461.91 1.65 C 2387.27 1.57 2312.63 1.64 2238.00 1.61 C 2234.33 1.50 2230.67 1.62 2227.10 2.43 M 95.45 37.38 C 85.30 44.91 75.11 52.40 64.86 59.79 C 63.07 61.05 61.55 62.63 60.20 64.33 C 62.13 64.51 64.07 64.62 66.01 64.65 C 141.34 64.63 216.67 64.65 292.00 64.65 C 318.01 64.53 344.03 64.88 370.03 64.45 C 375.29 61.99 379.17 57.28 383.31 53.30 C 388.91 46.80 395.76 41.50 401.11 34.79 C 399.20 33.86 397.17 33.23 395.03 33.39 C 298.00 33.42 200.97 33.36 103.94 33.42 C 100.56 33.08 98.00 35.57 95.45 37.38 M 712.05 39.17 C 709.37 44.30 705.28 48.46 702.28 53.38 C 700.08 56.98 696.88 60.14 696.13 64.45 C 700.08 64.62 704.04 64.62 708.00 64.62 C 808.05 64.58 908.10 64.81 1008.15 64.51 C 1010.54 58.75 1012.20 52.73 1014.19 46.82 C 1015.58 42.44 1017.96 38.24 1017.76 33.50 C 918.16 33.28 818.55 33.42 718.94 33.43 C 715.26 32.81 713.69 36.64 712.05 39.17 M 1332.62 34.99 C 1332.14 40.65 1332.55 46.34 1332.44 52.01 C 1332.56 56.23 1331.82 60.66 1333.53 64.68 C 1437.89 64.60 1542.24 64.65 1646.60 64.66 C 1646.83 62.25 1646.75 59.78 1645.87 57.49 C 1643.61 50.99 1641.38 44.48 1639.35 37.91 C 1638.58 35.95 1637.81 32.82 1635.07 33.44 C 1536.04 33.34 1437.01 33.42 1337.98 33.40 C 1336.08 33.56 1333.68 32.95 1332.62 34.99 M 2294.82 68.53 C 2298.07 73.70 2303.50 76.95 2307.59 81.40 C 2315.77 89.88 2324.72 97.56 2333.04 105.90 C 2334.81 107.37 2335.98 109.36 2336.15 111.71 C 2329.43 111.94 2322.71 111.79 2316.00 111.82 C 2213.33 111.83 2110.65 111.83 2007.98 111.83 C 2006.34 111.93 2004.80 112.50 2003.27 112.95 C 2005.16 116.57 2007.38 120.02 2009.76 123.35 C 2017.98 135.11 2025.92 147.08 2034.30 158.72 C 2035.20 160.50 2037.17 160.46 2038.93 160.43 C 2154.32 160.32 2269.71 160.51 2385.10 160.34 C 2381.91 155.19 2376.97 151.53 2372.72 147.33 C 2363.67 139.04 2355.25 130.10 2346.44 121.56 C 2343.54 118.43 2339.68 115.76 2338.70 111.35 C 2392.74 110.98 2446.80 111.42 2500.85 111.09 C 2504.53 110.63 2508.25 110.38 2512.00 110.48 C 2543.97 110.55 2575.95 110.40 2607.92 110.61 C 2589.57 96.42 2571.04 82.46 2552.69 68.26 C 2550.27 66.16 2546.91 66.83 2544.01 66.72 C 2461.99 66.62 2379.97 66.71 2297.95 66.65 C 2296.76 66.73 2293.37 66.61 2294.82 68.53 M 371.75 68.72 C 363.08 76.37 355.11 84.77 346.81 92.81 C 341.01 98.09 335.19 103.38 330.02 109.31 C 332.22 110.27 334.60 110.63 336.99 110.52 C 444.67 110.37 552.36 110.67 660.04 110.38 C 666.87 100.38 673.73 90.38 680.52 80.34 C 683.04 76.10 686.77 72.46 687.94 67.53 C 652.30 67.05 616.64 67.44 581.00 67.31 C 512.98 67.32 444.97 67.30 376.95 67.33 C 375.15 67.40 373.06 67.21 371.75 68.72 M 1010.67 67.37 C 1007.68 73.02 1006.10 79.25 1003.98 85.25 C 1001.32 93.32 998.45 101.32 995.91 109.43 C 1000.72 111.30 1005.96 110.23 1010.99 110.49 C 1116.34 110.44 1221.69 110.61 1327.04 110.41 C 1329.96 111.12 1329.60 107.95 1329.70 106.01 C 1329.66 93.16 1329.89 80.31 1329.56 67.47 C 1286.71 67.14 1243.85 67.39 1201.00 67.31 C 1137.56 67.35 1074.11 67.25 1010.67 67.37 M 658.02 118.14 C 648.74 132.25 638.14 145.52 629.69 160.17 C 635.45 160.46 641.23 160.32 647.00 160.34 C 755.35 160.35 863.70 160.32 972.06 160.37 C 973.37 160.20 975.45 160.71 975.96 158.99 C 979.85 148.60 982.97 137.92 986.73 127.48 C 988.30 122.75 990.48 118.14 990.96 113.12 C 986.68 112.30 982.32 112.55 978.00 112.54 C 873.65 112.58 769.29 112.51 664.94 112.58 C 661.39 112.17 659.73 115.73 658.02 118.14 M 1332.46 115.96 C 1332.43 130.73 1332.27 145.50 1332.59 160.27 C 1395.73 160.47 1458.86 160.25 1522.00 160.33 C 1575.00 160.25 1628.01 160.52 1681.01 160.20 C 1676.70 146.15 1671.47 132.41 1666.84 118.48 C 1665.85 116.44 1665.61 113.25 1662.98 112.73 C 1659.32 112.33 1655.65 112.59 1652.01 112.54 C 1546.99 112.56 1441.97 112.54 1336.96 112.56 C 1334.87 112.41 1331.82 113.29 1332.46 115.96 M 271.50 165.51 C 254.45 182.56 236.86 199.07 219.85 216.16 C 290.90 216.49 361.95 216.21 433.00 216.30 C 484.02 216.30 535.04 216.31 586.05 216.30 C 588.16 216.76 589.24 214.78 590.28 213.34 C 601.76 196.34 613.42 179.46 624.91 162.47 C 508.93 162.44 392.95 162.46 276.97 162.46 C 274.59 162.12 273.02 164.03 271.50 165.51 M 977.33 162.45 C 971.07 180.32 964.91 198.24 958.91 216.21 C 1032.60 216.44 1106.30 216.20 1180.00 216.34 C 1229.97 216.25 1279.95 216.62 1329.92 216.18 C 1330.48 209.47 1330.16 202.73 1330.24 196.00 C 1330.00 184.81 1330.75 173.58 1329.85 162.41 C 1212.35 162.50 1094.84 162.44 977.33 162.45 M 1684.26 162.42 C 1690.12 179.70 1696.10 196.94 1701.96 214.22 C 1702.21 215.72 1703.42 216.59 1704.96 216.29 C 1773.97 216.31 1842.99 216.29 1912.00 216.30 C 1964.80 216.17 2017.61 216.57 2070.41 216.19 C 2069.62 214.75 2068.87 213.31 2068.02 211.94 C 2056.84 195.45 2045.42 179.12 2034.38 162.55 C 1917.68 162.35 1800.97 162.55 1684.26 162.42 M 589.36 218.41 C 577.03 236.47 564.75 254.55 552.50 272.66 C 551.30 274.44 550.29 276.34 549.38 278.28 C 574.58 278.76 599.79 278.35 625.00 278.49 C 727.36 278.47 829.72 278.54 932.07 278.47 C 935.63 278.98 936.34 274.87 937.29 272.38 C 943.31 254.28 949.77 236.34 955.86 218.27 C 947.24 218.60 938.62 218.33 930.00 218.42 C 816.46 218.42 702.91 218.44 589.36 218.41 M 1332.38 218.43 C 1332.33 238.31 1332.45 258.19 1332.41 278.07 C 1335.58 278.47 1338.79 278.56 1342.00 278.53 C 1468.22 278.41 1594.45 278.63 1720.68 278.41 C 1720.33 271.92 1717.13 266.12 1715.19 260.03 C 1710.64 246.17 1705.86 232.38 1701.28 218.53 C 1687.85 218.27 1674.42 218.49 1661.00 218.43 C 1551.46 218.39 1441.92 218.49 1332.38 218.43 M 2075.14 218.49 C 2081.05 227.04 2086.88 235.65 2092.81 244.19 C 2097.47 250.84 2101.60 257.87 2106.74 264.19 C 2110.08 268.28 2112.40 273.13 2115.92 277.08 C 2117.38 278.89 2119.91 278.37 2121.97 278.53 C 2248.35 278.45 2374.72 278.58 2501.09 278.47 C 2503.97 279.51 2504.55 275.90 2502.60 274.50 C 2484.35 256.05 2465.70 237.99 2447.11 219.90 C 2446.06 218.68 2444.54 218.35 2443.04 218.45 C 2320.41 218.51 2197.78 218.41 2075.14 218.49 M 151.53 282.52 C 135.24 298.57 119.32 315.01 102.56 330.57 C 97.24 336.15 91.22 341.08 86.49 347.21 C 90.46 348.88 94.80 348.43 98.99 348.45 C 231.71 348.41 364.42 348.49 497.14 348.42 C 501.29 343.65 504.53 338.21 508.14 333.04 C 518.12 318.66 527.82 304.08 537.85 289.74 C 540.06 286.82 542.35 283.93 544.00 280.63 C 415.99 280.44 287.99 280.66 159.98 280.53 C 157.08 280.64 153.58 279.89 151.53 282.52 M 935.47 284.75 C 929.66 302.20 923.65 319.58 917.73 337.00 C 916.38 340.50 915.20 344.10 915.04 347.88 C 919.65 348.67 924.34 348.42 929.00 348.43 C 1058.00 348.43 1187.00 348.44 1316.00 348.45 C 1320.55 348.42 1325.17 348.76 1329.67 347.77 C 1330.87 341.24 1330.22 334.59 1330.37 328.00 C 1330.28 313.34 1330.59 298.67 1330.26 284.01 C 1330.50 281.00 1327.44 280.26 1325.05 280.52 C 1196.68 280.56 1068.30 280.51 939.94 280.58 C 937.28 280.04 936.12 282.71 935.47 284.75 M 1725.08 281.60 C 1732.53 302.33 1739.44 323.25 1746.73 344.04 C 1747.43 345.87 1748.44 348.34 1750.91 347.71 C 1835.27 347.87 1919.64 347.74 2004.00 347.79 C 2055.66 347.69 2107.32 348.02 2158.97 347.58 C 2158.54 343.61 2155.67 340.71 2153.57 337.55 C 2144.66 324.46 2135.76 311.37 2126.77 298.33 C 2122.56 292.41 2119.00 286.00 2114.16 280.55 C 1988.44 280.52 1862.72 280.58 1737.00 280.55 C 1733.00 280.62 1728.86 280.02 1725.08 281.60 M 496.63 354.73 C 481.79 377.15 466.41 399.21 451.36 421.49 C 450.36 423.00 449.73 424.71 449.13 426.42 C 486.41 426.98 523.71 426.52 561.00 426.67 C 667.00 426.66 773.01 426.69 879.01 426.66 C 881.02 426.39 884.36 427.36 884.76 424.53 C 891.56 404.68 898.34 384.82 905.30 365.02 C 906.71 360.69 908.55 356.47 909.44 351.99 C 908.25 350.08 905.92 350.56 904.03 350.43 C 770.33 350.48 636.63 350.40 502.93 350.47 C 499.90 349.92 498.13 352.58 496.63 354.73 M 1332.44 353.97 C 1332.41 377.31 1332.30 400.66 1332.55 423.99 C 1332.51 426.97 1335.79 426.58 1337.86 426.35 C 1336.95 426.74 1336.06 427.12 1335.22 427.59 C 1371.47 427.16 1407.74 427.50 1444.00 427.38 C 1551.65 427.37 1659.30 427.44 1766.94 427.40 C 1768.51 427.47 1770.95 426.97 1770.74 424.90 C 1770.49 420.47 1768.25 416.45 1767.05 412.24 C 1760.68 392.79 1753.70 373.55 1747.19 354.15 C 1746.67 352.88 1746.14 351.52 1744.99 350.71 C 1741.67 350.25 1738.32 350.47 1735.00 350.44 C 1602.32 350.46 1469.64 350.42 1336.97 350.46 C 1334.72 350.11 1331.85 351.23 1332.44 353.97 M 2167.74 350.83 L 2167.29 351.88 C 2168.43 355.03 2170.74 357.54 2172.58 360.30 C 2185.33 378.88 2197.99 397.53 2210.82 416.06 C 2213.22 419.47 2215.19 423.22 2218.08 426.28 C 2221.00 426.85 2224.02 426.60 2227.01 426.65 C 2310.67 426.69 2394.33 426.66 2478.00 426.68 C 2537.32 426.58 2596.64 426.88 2655.96 426.53 C 2656.14 423.09 2653.22 421.08 2651.08 418.92 C 2645.07 413.27 2640.12 406.60 2633.76 401.32 C 2617.44 386.27 2602.59 369.65 2585.74 355.16 C 2583.38 353.36 2581.37 350.22 2578.08 350.47 C 2447.38 350.46 2316.69 350.44 2186.00 350.47 C 2179.91 350.66 2173.78 350.02 2167.74 350.83 Z" />
</g>
<g id="#f3dba6ff">
<path fill="#f3dba6" opacity="1.00" d=" M 435.57 5.58 C 437.60 3.63 439.87 1.21 442.98 1.62 C 537.33 1.60 631.69 1.63 726.04 1.60 C 728.39 1.58 730.73 1.83 733.05 2.27 C 732.37 4.07 731.63 5.87 730.49 7.42 C 724.85 15.02 720.01 23.18 714.13 30.60 C 616.08 30.86 518.04 30.64 419.99 30.71 C 417.50 30.79 414.92 30.67 412.77 29.26 C 419.71 20.75 427.89 13.40 435.57 5.58 Z" />
<path fill="#f3dba6" opacity="1.00" d=" M 1031.60 3.52 C 1032.68 1.62 1035.06 1.61 1036.99 1.62 C 1133.00 1.61 1229.01 1.61 1325.02 1.61 C 1327.21 1.45 1330.82 2.17 1330.41 5.09 C 1330.19 13.73 1330.85 22.44 1330.04 31.04 C 1321.41 31.86 1312.67 31.14 1304.00 31.38 C 1210.16 31.31 1116.32 31.49 1022.49 31.28 C 1023.15 25.61 1025.78 20.46 1027.41 15.05 C 1028.79 11.20 1029.63 7.12 1031.60 3.52 Z" />
<path fill="#f3dba6" opacity="1.00" d=" M 1630.25 2.18 C 1633.79 1.51 1637.40 1.58 1641.00 1.61 C 1734.31 1.63 1827.62 1.58 1920.93 1.63 C 1923.77 1.25 1925.79 3.52 1927.27 5.63 C 1931.80 12.11 1936.17 18.71 1940.69 25.22 C 1942.01 27.06 1942.98 29.14 1943.71 31.29 C 1843.46 31.51 1743.21 31.28 1642.96 31.39 C 1641.78 31.24 1640.22 31.63 1639.48 30.49 C 1637.46 27.57 1636.76 24.00 1635.52 20.73 C 1633.56 14.61 1630.43 8.73 1630.25 2.18 Z" />
<path fill="#f3dba6" opacity="1.00" d=" M 2227.10 2.43 C 2230.67 1.62 2234.33 1.50 2238.00 1.61 C 2312.63 1.64 2387.27 1.57 2461.91 1.65 C 2465.51 1.37 2468.39 3.82 2471.00 5.98 C 2481.06 14.29 2492.05 21.47 2501.73 30.25 C 2495.95 31.94 2489.91 31.23 2484.00 31.35 C 2407.77 31.44 2331.52 31.15 2255.29 31.48 C 2256.35 31.81 2257.44 32.11 2258.57 32.39 C 2258.22 33.38 2256.79 34.71 2258.10 35.62 C 2263.60 42.21 2270.85 47.03 2276.72 53.27 C 2280.17 57.06 2284.56 60.08 2287.02 64.68 C 2282.42 65.77 2277.67 65.23 2273.00 65.32 C 2171.99 65.36 2070.98 65.25 1969.97 65.36 C 1970.10 69.99 1973.73 73.19 1976.03 76.87 C 1982.28 86.25 1988.73 95.51 1995.10 104.82 C 1996.17 106.56 1997.59 108.32 1997.53 110.49 C 1996.60 111.38 1995.15 111.12 1994.03 111.25 C 1889.02 111.18 1784.01 111.23 1679.00 111.21 C 1675.50 111.14 1671.98 111.47 1668.52 111.03 C 1665.93 110.60 1665.54 107.55 1664.61 105.59 C 1661.42 95.68 1657.44 86.05 1654.24 76.15 C 1653.36 73.31 1651.92 70.56 1651.70 67.56 C 1652.51 66.61 1653.79 66.74 1654.96 66.67 C 1760.01 66.63 1865.06 66.77 1970.11 66.59 C 1969.39 64.03 1968.06 61.72 1966.50 59.61 C 1962.41 53.98 1958.57 48.18 1954.61 42.47 C 1952.58 39.42 1949.28 36.76 1949.45 32.77 C 2050.97 32.62 2152.49 32.90 2254.01 32.62 C 2254.29 28.62 2250.73 26.34 2248.41 23.67 C 2241.58 16.31 2233.93 9.77 2227.10 2.43 Z" />
<path fill="#f3dba6" opacity="1.00" d=" M 95.45 37.38 C 98.00 35.57 100.56 33.08 103.94 33.42 C 200.97 33.36 298.00 33.42 395.03 33.39 C 397.17 33.23 399.20 33.86 401.11 34.79 C 395.76 41.50 388.91 46.80 383.31 53.30 C 379.17 57.28 375.29 61.99 370.03 64.45 C 344.03 64.88 318.01 64.53 292.00 64.65 C 216.67 64.65 141.34 64.63 66.01 64.65 C 64.07 64.62 62.13 64.51 60.20 64.33 C 61.55 62.63 63.07 61.05 64.86 59.79 C 75.11 52.40 85.30 44.91 95.45 37.38 Z" />
<path fill="#f3dba6" opacity="1.00" d=" M 712.05 39.17 C 713.69 36.64 715.26 32.81 718.94 33.43 C 818.55 33.42 918.16 33.28 1017.76 33.50 C 1017.96 38.24 1015.58 42.44 1014.19 46.82 C 1012.20 52.73 1010.54 58.75 1008.15 64.51 C 908.10 64.81 808.05 64.58 708.00 64.62 C 704.04 64.62 700.08 64.62 696.13 64.45 C 696.88 60.14 700.08 56.98 702.28 53.38 C 705.28 48.46 709.37 44.30 712.05 39.17 Z" />
<path fill="#f3dba6" opacity="1.00" d=" M 1332.62 34.99 C 1333.68 32.95 1336.08 33.56 1337.98 33.40 C 1437.01 33.42 1536.04 33.34 1635.07 33.44 C 1637.81 32.82 1638.58 35.95 1639.35 37.91 C 1641.38 44.48 1643.61 50.99 1645.87 57.49 C 1646.75 59.78 1646.83 62.25 1646.60 64.66 C 1542.24 64.65 1437.89 64.60 1333.53 64.68 C 1331.82 60.66 1332.56 56.23 1332.44 52.01 C 1332.55 46.34 1332.14 40.65 1332.62 34.99 Z" />
<path fill="#f3dba6" opacity="1.00" d=" M 2294.82 68.53 C 2293.37 66.61 2296.76 66.73 2297.95 66.65 C 2379.97 66.71 2461.99 66.62 2544.01 66.72 C 2546.91 66.83 2550.27 66.16 2552.69 68.26 C 2571.04 82.46 2589.57 96.42 2607.92 110.61 C 2575.95 110.40 2543.97 110.55 2512.00 110.48 C 2508.25 110.38 2504.53 110.63 2500.85 111.09 C 2446.80 111.42 2392.74 110.98 2338.70 111.35 C 2339.68 115.76 2343.54 118.43 2346.44 121.56 C 2355.25 130.10 2363.67 139.04 2372.72 147.33 C 2376.97 151.53 2381.91 155.19 2385.10 160.34 C 2269.71 160.51 2154.32 160.32 2038.93 160.43 C 2037.17 160.46 2035.20 160.50 2034.30 158.72 C 2025.92 147.08 2017.98 135.11 2009.76 123.35 C 2007.38 120.02 2005.16 116.57 2003.27 112.95 C 2004.80 112.50 2006.34 111.93 2007.98 111.83 C 2110.65 111.83 2213.33 111.83 2316.00 111.82 C 2322.71 111.79 2329.43 111.94 2336.15 111.71 C 2335.98 109.36 2334.81 107.37 2333.04 105.90 C 2324.72 97.56 2315.77 89.88 2307.59 81.40 C 2303.50 76.95 2298.07 73.70 2294.82 68.53 Z" />
<path fill="#f3dba6" opacity="1.00" d=" M 371.75 68.72 C 373.06 67.21 375.15 67.40 376.95 67.33 C 444.97 67.30 512.98 67.32 581.00 67.31 C 616.64 67.44 652.30 67.05 687.94 67.53 C 686.77 72.46 683.04 76.10 680.52 80.34 C 673.73 90.38 666.87 100.38 660.04 110.38 C 552.36 110.67 444.67 110.37 336.99 110.52 C 334.60 110.63 332.22 110.27 330.02 109.31 C 335.19 103.38 341.01 98.09 346.81 92.81 C 355.11 84.77 363.08 76.37 371.75 68.72 Z" />
<path fill="#f3dba6" opacity="1.00" d=" M 1010.67 67.37 C 1074.11 67.25 1137.56 67.35 1201.00 67.31 C 1243.85 67.39 1286.71 67.14 1329.56 67.47 C 1329.89 80.31 1329.66 93.16 1329.70 106.01 C 1329.60 107.95 1329.96 111.12 1327.04 110.41 C 1221.69 110.61 1116.34 110.44 1010.99 110.49 C 1005.96 110.23 1000.72 111.30 995.91 109.43 C 998.45 101.32 1001.32 93.32 1003.98 85.25 C 1006.10 79.25 1007.68 73.02 1010.67 67.37 Z" />
<path fill="#f3dba6" opacity="1.00" d=" M 0.00 112.67 C 101.33 112.53 202.67 112.56 304.00 112.55 C 309.68 112.58 315.46 112.04 321.01 113.58 C 317.61 117.65 313.73 121.25 309.97 124.97 C 298.66 136.32 287.30 147.62 275.55 158.52 C 274.12 159.99 272.06 160.42 270.08 160.37 C 180.05 160.33 90.03 160.33 0.00 160.28 L 0.00 112.67 Z" />
<path fill="#f3dba6" opacity="1.00" d=" M 658.02 118.14 C 659.73 115.73 661.39 112.17 664.94 112.58 C 769.29 112.51 873.65 112.58 978.00 112.54 C 982.32 112.55 986.68 112.30 990.96 113.12 C 990.48 118.14 988.30 122.75 986.73 127.48 C 982.97 137.92 979.85 148.60 975.96 158.99 C 975.45 160.71 973.37 160.20 972.06 160.37 C 863.70 160.32 755.35 160.35 647.00 160.34 C 641.23 160.32 635.45 160.46 629.69 160.17 C 638.14 145.52 648.74 132.25 658.02 118.14 Z" />
<path fill="#f3dba6" opacity="1.00" d=" M 1332.46 115.96 C 1331.82 113.29 1334.87 112.41 1336.96 112.56 C 1441.97 112.54 1546.99 112.56 1652.01 112.54 C 1655.65 112.59 1659.32 112.33 1662.98 112.73 C 1665.61 113.25 1665.85 116.44 1666.84 118.48 C 1671.47 132.41 1676.70 146.15 1681.01 160.20 C 1628.01 160.52 1575.00 160.25 1522.00 160.33 C 1458.86 160.25 1395.73 160.47 1332.59 160.27 C 1332.27 145.50 1332.43 130.73 1332.46 115.96 Z" />
<path fill="#f3dba6" opacity="1.00" d=" M 271.50 165.51 C 273.02 164.03 274.59 162.12 276.97 162.46 C 392.95 162.46 508.93 162.44 624.91 162.47 C 613.42 179.46 601.76 196.34 590.28 213.34 C 589.24 214.78 588.16 216.76 586.05 216.30 C 535.04 216.31 484.02 216.30 433.00 216.30 C 361.95 216.21 290.90 216.49 219.85 216.16 C 236.86 199.07 254.45 182.56 271.50 165.51 Z" />
<path fill="#f3dba6" opacity="1.00" d=" M 977.33 162.45 C 1094.84 162.44 1212.35 162.50 1329.85 162.41 C 1330.75 173.58 1330.00 184.81 1330.24 196.00 C 1330.16 202.73 1330.48 209.47 1329.92 216.18 C 1279.95 216.62 1229.97 216.25 1180.00 216.34 C 1106.30 216.20 1032.60 216.44 958.91 216.21 C 964.91 198.24 971.07 180.32 977.33 162.45 Z" />
<path fill="#f3dba6" opacity="1.00" d=" M 1684.26 162.42 C 1800.97 162.55 1917.68 162.35 2034.38 162.55 C 2045.42 179.12 2056.84 195.45 2068.02 211.94 C 2068.87 213.31 2069.62 214.75 2070.41 216.19 C 2017.61 216.57 1964.80 216.17 1912.00 216.30 C 1842.99 216.29 1773.97 216.31 1704.96 216.29 C 1703.42 216.59 1702.21 215.72 1701.96 214.22 C 1696.10 196.94 1690.12 179.70 1684.26 162.42 Z" />
<path fill="#f3dba6" opacity="1.00" d=" M 2391.82 162.58 C 2482.21 162.31 2572.61 162.54 2663.00 162.38 L 2663.00 216.28 C 2591.98 216.31 2520.95 216.34 2449.93 216.36 C 2446.83 216.68 2444.57 214.40 2442.55 212.45 C 2433.65 203.69 2424.73 194.94 2415.72 186.28 C 2407.76 178.37 2399.37 170.87 2391.82 162.58 Z" />
<path fill="#f3dba6" opacity="1.00" d=" M 0.00 218.42 C 71.37 218.42 142.73 218.46 214.10 218.40 C 196.33 236.19 178.23 253.66 160.07 271.07 C 157.42 273.50 155.23 276.63 151.93 278.23 C 148.64 278.74 145.30 278.48 142.00 278.51 C 94.66 278.42 47.33 278.57 0.00 278.42 L 0.00 218.42 Z" />
<path fill="#f3dba6" opacity="1.00" d=" M 589.36 218.41 C 702.91 218.44 816.46 218.42 930.00 218.42 C 938.62 218.33 947.24 218.60 955.86 218.27 C 949.77 236.34 943.31 254.28 937.29 272.38 C 936.34 274.87 935.63 278.98 932.07 278.47 C 829.72 278.54 727.36 278.47 625.00 278.49 C 599.79 278.35 574.58 278.76 549.38 278.28 C 550.29 276.34 551.30 274.44 552.50 272.66 C 564.75 254.55 577.03 236.47 589.36 218.41 Z" />
<path fill="#f3dba6" opacity="1.00" d=" M 1332.38 218.43 C 1441.92 218.49 1551.46 218.39 1661.00 218.43 C 1674.42 218.49 1687.85 218.27 1701.28 218.53 C 1705.86 232.38 1710.64 246.17 1715.19 260.03 C 1717.13 266.12 1720.33 271.92 1720.68 278.41 C 1594.45 278.63 1468.22 278.41 1342.00 278.53 C 1338.79 278.56 1335.58 278.47 1332.41 278.07 C 1332.45 258.19 1332.33 238.31 1332.38 218.43 Z" />
<path fill="#f3dba6" opacity="1.00" d=" M 2075.14 218.49 C 2197.78 218.41 2320.41 218.51 2443.04 218.45 C 2444.54 218.35 2446.06 218.68 2447.11 219.90 C 2465.70 237.99 2484.35 256.05 2502.60 274.50 C 2504.55 275.90 2503.97 279.51 2501.09 278.47 C 2374.72 278.58 2248.35 278.45 2121.97 278.53 C 2119.91 278.37 2117.38 278.89 2115.92 277.08 C 2112.40 273.13 2110.08 268.28 2106.74 264.19 C 2101.60 257.87 2097.47 250.84 2092.81 244.19 C 2086.88 235.65 2081.05 227.04 2075.14 218.49 Z" />
<path fill="#f3dba6" opacity="1.00" d=" M 151.53 282.52 C 153.58 279.89 157.08 280.64 159.98 280.53 C 287.99 280.66 415.99 280.44 544.00 280.63 C 542.35 283.93 540.06 286.82 537.85 289.74 C 527.82 304.08 518.12 318.66 508.14 333.04 C 504.53 338.21 501.29 343.65 497.14 348.42 C 364.42 348.49 231.71 348.41 98.99 348.45 C 94.80 348.43 90.46 348.88 86.49 347.21 C 91.22 341.08 97.24 336.15 102.56 330.57 C 119.32 315.01 135.24 298.57 151.53 282.52 Z" />
<path fill="#f3dba6" opacity="1.00" d=" M 935.47 284.75 C 936.12 282.71 937.28 280.04 939.94 280.58 C 1068.30 280.51 1196.68 280.56 1325.05 280.52 C 1327.44 280.26 1330.50 281.00 1330.26 284.01 C 1330.59 298.67 1330.28 313.34 1330.37 328.00 C 1330.22 334.59 1330.87 341.24 1329.67 347.77 C 1325.17 348.76 1320.55 348.42 1316.00 348.45 C 1187.00 348.44 1058.00 348.43 929.00 348.43 C 924.34 348.42 919.65 348.67 915.04 347.88 C 915.20 344.10 916.38 340.50 917.73 337.00 C 923.65 319.58 929.66 302.20 935.47 284.75 Z" />
<path fill="#f3dba6" opacity="1.00" d=" M 1725.08 281.60 C 1728.86 280.02 1733.00 280.62 1737.00 280.55 C 1862.72 280.58 1988.44 280.52 2114.16 280.55 C 2119.00 286.00 2122.56 292.41 2126.77 298.33 C 2135.76 311.37 2144.66 324.46 2153.57 337.55 C 2155.67 340.71 2158.54 343.61 2158.97 347.58 C 2107.32 348.02 2055.66 347.69 2004.00 347.79 C 1919.64 347.74 1835.27 347.87 1750.91 347.71 C 1748.44 348.34 1747.43 345.87 1746.73 344.04 C 1739.44 323.25 1732.53 302.33 1725.08 281.60 Z" />
<path fill="#f3dba6" opacity="1.00" d=" M 2514.60 281.69 C 2519.26 280.25 2524.17 280.45 2529.00 280.53 C 2573.66 280.60 2618.33 280.45 2663.00 280.60 L 2663.00 347.77 C 2636.97 347.82 2610.94 347.79 2584.92 347.70 C 2582.27 347.93 2580.44 345.88 2578.71 344.26 C 2570.13 335.17 2560.54 327.13 2551.84 318.17 C 2543.24 310.44 2535.12 302.21 2526.93 294.06 C 2522.87 289.88 2518.03 286.46 2514.60 281.69 Z" />
<path fill="#f3dba6" opacity="1.00" d=" M 0.00 350.47 C 25.38 350.57 50.77 350.17 76.15 350.67 C 75.37 352.59 74.57 354.59 73.02 356.06 C 58.99 370.01 45.02 384.02 30.80 397.77 C 20.18 407.27 10.59 417.85 0.00 427.38 L 0.00 350.47 Z" />
<path fill="#f3dba6" opacity="1.00" d=" M 496.63 354.73 C 498.13 352.58 499.90 349.92 502.93 350.47 C 636.63 350.40 770.33 350.48 904.03 350.43 C 905.92 350.56 908.25 350.08 909.44 351.99 C 908.55 356.47 906.71 360.69 905.30 365.02 C 898.34 384.82 891.56 404.68 884.76 424.53 C 884.36 427.36 881.02 426.39 879.01 426.66 C 773.01 426.69 667.00 426.66 561.00 426.67 C 523.71 426.52 486.41 426.98 449.13 426.42 C 449.73 424.71 450.36 423.00 451.36 421.49 C 466.41 399.21 481.79 377.15 496.63 354.73 Z" />
<path fill="#f3dba6" opacity="1.00" d=" M 1332.44 353.97 C 1331.85 351.23 1334.72 350.11 1336.97 350.46 C 1469.64 350.42 1602.32 350.46 1735.00 350.44 C 1738.32 350.47 1741.67 350.25 1744.99 350.71 C 1746.14 351.52 1746.67 352.88 1747.19 354.15 C 1753.70 373.55 1760.68 392.79 1767.05 412.24 C 1768.25 416.45 1770.49 420.47 1770.74 424.90 C 1770.95 426.97 1768.51 427.47 1766.94 427.40 C 1659.30 427.44 1551.65 427.37 1444.00 427.38 C 1407.74 427.50 1371.47 427.16 1335.22 427.59 C 1336.06 427.12 1336.95 426.74 1337.86 426.35 C 1335.79 426.58 1332.51 426.97 1332.55 423.99 C 1332.30 400.66 1332.41 377.31 1332.44 353.97 Z" />
<path fill="#f3dba6" opacity="1.00" d=" M 2167.74 350.83 C 2173.78 350.02 2179.91 350.66 2186.00 350.47 C 2316.69 350.44 2447.38 350.46 2578.08 350.47 C 2581.37 350.22 2583.38 353.36 2585.74 355.16 C 2602.59 369.65 2617.44 386.27 2633.76 401.32 C 2640.12 406.60 2645.07 413.27 2651.08 418.92 C 2653.22 421.08 2656.14 423.09 2655.96 426.53 C 2596.64 426.88 2537.32 426.58 2478.00 426.68 C 2394.33 426.66 2310.67 426.69 2227.01 426.65 C 2224.02 426.60 2221.00 426.85 2218.08 426.28 C 2215.19 423.22 2213.22 419.47 2210.82 416.06 C 2197.99 397.53 2185.33 378.88 2172.58 360.30 C 2170.74 357.54 2168.43 355.03 2167.29 351.88 L 2167.74 350.83 Z" />
</g>
</svg>
